<?xml version="1.0" encoding="utf-8"?>
<!-- Generator: Adobe Illustrator 27.5.0, SVG Export Plug-In . SVG Version: 6.00 Build 0)  -->
<svg version="1.1" xmlns="http://www.w3.org/2000/svg" xmlns:xlink="http://www.w3.org/1999/xlink" x="0px" y="0px"
	 viewBox="0 0 500 500" style="enable-background:new 0 0 500 500;" xml:space="preserve">
<g id="BACKGROUND">
	<g>
		<rect style="fill:#FFFFFF;" width="500" height="500"/>
		<linearGradient id="SVGID_1_" gradientUnits="userSpaceOnUse" x1="86.5986" y1="206.0412" x2="500" y2="206.0412">
			<stop  offset="0" style="stop-color:#1AE5FF"/>
			<stop  offset="0.0622" style="stop-color:#3FE7FC"/>
			<stop  offset="0.1324" style="stop-color:#61E8F9"/>
			<stop  offset="0.2105" style="stop-color:#7EE9F7"/>
			<stop  offset="0.2968" style="stop-color:#96EAF5"/>
			<stop  offset="0.3948" style="stop-color:#A8EBF4"/>
			<stop  offset="0.5114" style="stop-color:#B4ECF3"/>
			<stop  offset="0.665" style="stop-color:#BCECF2"/>
			<stop  offset="1" style="stop-color:#BEECF2"/>
		</linearGradient>
		<path style="opacity:0.53;fill:url(#SVGID_1_);" d="M86.599,156.345c0,141.24,114.497,255.737,255.737,255.737
			c59.484,0,114.222-20.311,157.664-54.373V0H139.96C106.514,43.23,86.599,97.458,86.599,156.345z"/>
		
			<linearGradient id="SVGID_00000166675957938325004860000018334716474691682223_" gradientUnits="userSpaceOnUse" x1="0" y1="445.5417" x2="158.595" y2="445.5417">
			<stop  offset="0" style="stop-color:#1AE5FF"/>
			<stop  offset="0.0622" style="stop-color:#3FE7FC"/>
			<stop  offset="0.1324" style="stop-color:#61E8F9"/>
			<stop  offset="0.2105" style="stop-color:#7EE9F7"/>
			<stop  offset="0.2968" style="stop-color:#96EAF5"/>
			<stop  offset="0.3948" style="stop-color:#A8EBF4"/>
			<stop  offset="0.5114" style="stop-color:#B4ECF3"/>
			<stop  offset="0.665" style="stop-color:#BCECF2"/>
			<stop  offset="1" style="stop-color:#BEECF2"/>
		</linearGradient>
		<path style="opacity:0.53;fill:url(#SVGID_00000166675957938325004860000018334716474691682223_);" d="M50.6,391.083
			c-18.285,0-35.506,4.551-50.6,12.572V500h158.583c0.003-0.308,0.012-0.614,0.012-0.922
			C158.595,439.434,110.244,391.083,50.6,391.083z"/>
	</g>
</g>
<g id="OBJECTS">
	<g>
		<g>
			<g>
				<path style="fill:#58AFFB;" d="M356.65,194.189c-0.047-0.027-0.094-0.053-0.14-0.078c-0.06-0.033-0.121-0.064-0.181-0.093
					c-0.06-0.029-0.119-0.058-0.179-0.084c-0.059-0.027-0.118-0.051-0.176-0.075c-0.06-0.024-0.119-0.046-0.178-0.067
					c-0.011-0.004-0.023-0.007-0.034-0.011c-0.004-0.001-0.009-0.003-0.013-0.004c-0.043-0.015-0.086-0.029-0.129-0.042
					c-0.061-0.019-0.122-0.035-0.182-0.05c-0.061-0.015-0.121-0.029-0.18-0.04c-0.065-0.013-0.129-0.023-0.193-0.032
					c-0.044-0.006-0.086-0.009-0.129-0.013c-0.006-0.001-0.013-0.001-0.019-0.002c-0.016-0.001-0.032-0.004-0.047-0.005
					c-0.07-0.005-0.139-0.007-0.207-0.007c-0.077,0-0.153,0.004-0.228,0.011c-0.086,0.008-0.171,0.02-0.254,0.037
					c-0.002,0-0.004,0.001-0.006,0.002c-0.003,0.001-0.005,0.002-0.008,0.002c-0.101,0.021-0.199,0.047-0.293,0.081
					c-0.124,0.044-0.243,0.099-0.356,0.165l-2.918,1.696c0.198-0.115,0.416-0.197,0.649-0.245c0.003-0.001,0.006-0.002,0.009-0.002
					c0.232-0.047,0.48-0.06,0.741-0.038c0.007,0.001,0.014,0.001,0.02,0.002c0.26,0.024,0.531,0.082,0.813,0.178
					c0.004,0.001,0.008,0.003,0.012,0.004c0.287,0.098,0.584,0.233,0.888,0.409l81.514,47.063l2.918-1.696L356.65,194.189z"/>
				<path style="fill:#58AFFB;" d="M442.549,248.652c-0.002-0.071-0.005-0.142-0.01-0.213c-0.004-0.071-0.01-0.143-0.017-0.214
					c-0.007-0.072-0.015-0.144-0.024-0.216c-0.009-0.074-0.02-0.147-0.032-0.221c0-0.002-0.001-0.004-0.001-0.006
					c0-0.002-0.001-0.003-0.001-0.005c-0.011-0.07-0.024-0.141-0.037-0.212c-0.014-0.076-0.03-0.153-0.047-0.23
					c-0.017-0.077-0.035-0.154-0.054-0.231c-0.019-0.078-0.04-0.156-0.061-0.234c-0.017-0.06-0.035-0.121-0.053-0.181
					c-0.001-0.005-0.003-0.01-0.004-0.014c-0.004-0.012-0.007-0.025-0.011-0.037c-0.023-0.076-0.048-0.152-0.073-0.228
					c-0.025-0.075-0.051-0.15-0.078-0.224c-0.026-0.072-0.053-0.144-0.081-0.215c-0.028-0.071-0.056-0.143-0.086-0.214
					c-0.023-0.055-0.046-0.109-0.07-0.163c-0.002-0.003-0.003-0.007-0.004-0.01c-0.005-0.012-0.011-0.025-0.016-0.037
					c-0.032-0.071-0.064-0.142-0.097-0.213c-0.036-0.077-0.074-0.154-0.112-0.231c-0.044-0.088-0.089-0.176-0.136-0.263
					c-0.05-0.094-0.104-0.187-0.157-0.279c-0.009-0.016-0.018-0.033-0.027-0.049c-0.011-0.019-0.022-0.039-0.033-0.058
					c-0.104-0.177-0.213-0.35-0.326-0.52c-0.09-0.135-0.183-0.267-0.279-0.397c-0.064-0.087-0.129-0.172-0.196-0.257
					c-0.056-0.071-0.112-0.141-0.17-0.21c-0.056-0.067-0.113-0.133-0.17-0.199c-0.057-0.064-0.113-0.127-0.171-0.19
					c-0.012-0.012-0.023-0.024-0.035-0.036c-0.004-0.005-0.008-0.009-0.013-0.013c-0.044-0.047-0.088-0.093-0.133-0.139
					c-0.061-0.062-0.123-0.123-0.185-0.183c-0.064-0.061-0.128-0.121-0.194-0.18c-0.065-0.058-0.13-0.115-0.196-0.171
					c-0.033-0.028-0.066-0.054-0.099-0.081c-0.007-0.006-0.015-0.012-0.022-0.018c-0.025-0.02-0.049-0.041-0.074-0.061
					c-0.064-0.05-0.129-0.1-0.193-0.147c-0.064-0.047-0.127-0.092-0.192-0.136c-0.062-0.042-0.124-0.084-0.187-0.124
					c-0.062-0.039-0.124-0.077-0.186-0.114c-0.014-0.009-0.029-0.017-0.043-0.025l-2.918,1.696c0.3,0.173,0.593,0.378,0.876,0.607
					c0.007,0.006,0.015,0.012,0.022,0.018c0.28,0.228,0.55,0.481,0.807,0.755c0.004,0.004,0.008,0.009,0.013,0.013
					c0.519,0.553,0.986,1.189,1.379,1.867c0.009,0.016,0.018,0.033,0.027,0.049c0.191,0.332,0.365,0.674,0.517,1.022
					c0.002,0.004,0.004,0.008,0.005,0.012c0.155,0.356,0.289,0.717,0.398,1.08c0.002,0.005,0.003,0.01,0.004,0.014
					c0.109,0.363,0.194,0.727,0.251,1.087c0,0.001,0,0.003,0.001,0.004c0.057,0.363,0.087,0.721,0.086,1.07l-0.158,55.696
					c-0.001,0.342-0.033,0.658-0.09,0.948c-0.002,0.009-0.004,0.018-0.006,0.027c-0.058,0.285-0.141,0.544-0.249,0.775
					c-0.002,0.005-0.004,0.01-0.006,0.015c-0.091,0.194-0.208,0.357-0.33,0.511c-0.04,0.051-0.079,0.105-0.122,0.151
					c-0.145,0.155-0.303,0.293-0.481,0.397l2.918-1.696c0.178-0.104,0.336-0.241,0.481-0.397c0.044-0.047,0.081-0.1,0.122-0.151
					c0.053-0.066,0.112-0.123,0.159-0.197c0.06-0.094,0.115-0.195,0.166-0.301c0.002-0.004,0.004-0.009,0.006-0.014
					c0.002-0.004,0.003-0.009,0.006-0.013c0.033-0.072,0.065-0.145,0.094-0.223c0.028-0.075,0.053-0.152,0.077-0.232
					c0.021-0.073,0.041-0.148,0.058-0.225c0.007-0.031,0.013-0.065,0.02-0.097c0.002-0.009,0.004-0.018,0.005-0.027
					c0.006-0.031,0.013-0.06,0.018-0.092c0.012-0.069,0.022-0.139,0.031-0.211c0.009-0.069,0.016-0.14,0.022-0.212
					c0.006-0.068,0.01-0.137,0.013-0.208c0.003-0.07,0.005-0.141,0.005-0.213c0-0.004,0-0.008,0-0.013l0.158-55.696
					C442.552,248.785,442.551,248.719,442.549,248.652z"/>
				<g>
					<path style="fill:#1AE5FF;" d="M435.246,242.948c2.432,1.404,4.395,4.804,4.387,7.599l-0.158,55.696
						c-0.008,2.795-1.984,3.921-4.416,2.517l-81.515-47.063c-2.432-1.404-4.395-4.804-4.387-7.599l0.158-55.696
						c0.008-2.795,1.984-3.921,4.416-2.516L435.246,242.948z"/>
				</g>
				<g>
					<path style="fill:#FFFFFF;" d="M431.284,243.857c2.196,1.268,3.969,4.338,3.962,6.862l-0.143,50.294
						c-0.007,2.524-1.791,3.54-3.988,2.272l-73.609-42.498c-2.196-1.268-3.969-4.338-3.962-6.862l0.143-50.294
						c0.007-2.523,1.791-3.54,3.988-2.272L431.284,243.857z"/>
				</g>
			</g>
			<g>
				<g>
					<g>
						<path style="fill:#1CE5FF;" d="M407.068,241.288l0,1.155c0,0.681-0.737,1.107-1.327,0.767l-5.459-3.145
							c-0.274-0.158-0.443-0.45-0.443-0.767l0-1.155c0-0.681,0.737-1.107,1.327-0.767l5.459,3.145
							C406.899,240.679,407.068,240.971,407.068,241.288z"/>
					</g>
					<g>
						<path style="fill:#1CE5FF;" d="M424.355,256.93l0,1.158c0,0.68-0.735,1.106-1.325,0.768l-22.745-13.038
							c-0.275-0.158-0.445-0.451-0.445-0.768l0-1.158c0-0.68,0.735-1.106,1.325-0.768l22.745,13.039
							C424.185,256.32,424.355,256.613,424.355,256.93z"/>
					</g>
					<g style="opacity:0.53;">
						<path style="fill:#1CE5FF;" d="M414.98,263.058l0,1.158c0,0.68-0.735,1.106-1.325,0.768l-13.367-7.663
							c-0.275-0.158-0.445-0.451-0.445-0.768l0-1.158c0-0.68,0.735-1.106,1.325-0.768l13.367,7.663
							C414.811,262.448,414.98,262.741,414.98,263.058z"/>
					</g>
					<g>
						<path style="opacity:0.3;fill:#1CE5FF;" d="M420.83,260.66l0,1.158c0,0.68-0.735,1.106-1.325,0.768l-19.218-11.017
							c-0.275-0.158-0.445-0.45-0.445-0.767l0-1.158c0-0.68,0.735-1.106,1.325-0.768l19.218,11.017
							C420.66,260.05,420.829,260.343,420.83,260.66z"/>
					</g>
				</g>
			</g>
			<g>
				<g>
					
						<ellipse transform="matrix(0.8646 -0.5025 0.5025 0.8646 -70.2805 222.386)" style="fill:#58AFFB;" cx="377.5" cy="241.6" rx="11.023" ry="19.03"/>
				</g>
				<g>
					<g>
						<path style="fill:#0E7B89;" d="M380.77,251.319c-0.02,0.007-0.052,0.018-0.094,0.032l0.047-0.082
							C380.724,251.27,380.74,251.287,380.77,251.319z"/>
					</g>
					<g>
						<path style="fill:#113C7A;" d="M373.391,242.251c0.238,0.607,0.865,1.501,1.565,2.383c0.075,1.105-0.031,2.152-0.635,2.439
							c-0.155,0.074-0.327,0.132-0.513,0.177c-0.049-0.066-0.074-0.102-0.075-0.104c-0.085-0.001-1.693-0.019-3.164,0.088
							c0.762-1.303,1.661-3.743,0.33-6.794c-2.016-4.615-1.932-7.845-1.474-9.651c0.379-1.507,1.746-1.483,2.189-1.434
							c-0.01,0.02,0.062,0.677,0.546,1.702c-0.199,0.548-0.309,1.197-0.311,1.936c0,0.176,0.007,0.352,0.017,0.531
							c-0.019-0.011,0.117,1.117,0.333,2.611c-0.181-0.361-0.42-0.745-0.674-0.892c-0.117-0.068-0.237-0.085-0.357-0.026
							c-0.664,0.331,0.625,4.152,1.137,4.465c0.198,0.115,0.362,0.116,0.498,0.072C372.987,240.701,373.187,241.582,373.391,242.251
							z"/>
					</g>
					<g style="enable-background:new    ;">
						<g>
							<path style="fill:#894322;" d="M377.42,251.591c0.033-0.012,0.06-0.021,0.077-0.027c0.016,0.024,0.04,0.06,0.07,0.106
								L377.42,251.591z"/>
						</g>
						<g>
							<path style="fill:#FFFFFF;" d="M373.808,247.251c0.421,0.575,2.511,3.395,3.689,4.285c-0.008-0.003-0.016-0.006-0.024-0.01
								c0,0,0.008,0.013,0.024,0.037c-0.017,0.006-0.043,0.015-0.077,0.027c-0.43,0.15-2.118,0.712-2.765,0.525
								c-0.03-0.009-0.061-0.022-0.092-0.04c-0.738-0.426-1.672-3.354-0.83-4.928C373.734,247.149,373.76,247.184,373.808,247.251z"
								/>
						</g>
						<g>
							<path style="fill:#FFFFFF;" d="M380.795,251.31c0.006,0.018,0.012,0.036,0.018,0.055c0.804,2.51,0.303,4.494-0.393,4.092
								c-0.031-0.018-0.062-0.04-0.093-0.067c-0.653-0.565-2.342-3.091-2.76-3.721c-0.03-0.046-0.054-0.082-0.07-0.106
								c-0.016-0.024-0.024-0.036-0.024-0.036c0.008,0.003,0.016,0.006,0.024,0.009c1.083,0.431,2.638-0.008,3.137-0.171
								c0.015-0.005,0.029-0.01,0.043-0.014c0.042-0.014,0.074-0.025,0.094-0.032C380.786,251.314,380.794,251.311,380.795,251.31z"
								/>
						</g>
						<g>
							<path style="fill:#FF9D6F;" d="M379.931,247.551c-0.22,1.057-0.246,2.301,0.385,3.333c0.098,0.16,0.204,0.32,0.317,0.482
								c-0.499,0.163-2.054,0.602-3.137,0.171c-1.178-0.891-3.268-3.71-3.689-4.285c0.185-0.046,0.358-0.103,0.513-0.177
								c0.604-0.287,0.71-1.335,0.635-2.439c0.469,0.591,0.969,1.176,1.408,1.665c0.351,0.392,0.73,0.706,1.109,0.924
								c0.38,0.219,0.759,0.344,1.111,0.358C379.004,247.599,379.481,247.594,379.931,247.551z"/>
						</g>
						<g>
							<path style="fill:#1AE5FF;" d="M377.678,257.516c-0.017-0.009-0.034-0.019-0.051-0.029c-0.057-0.032-0.113-0.064-0.17-0.097
								c-0.057-0.033-0.113-0.066-0.17-0.099c-0.019-0.011-0.038-0.023-0.056-0.034c-0.038-0.022-0.076-0.045-0.113-0.068
								c-0.022-0.014-0.044-0.027-0.067-0.041c-0.034-0.021-0.068-0.042-0.102-0.063c-0.024-0.015-0.048-0.03-0.071-0.044
								c-0.032-0.02-0.065-0.04-0.097-0.061c-0.025-0.016-0.051-0.032-0.076-0.049c-0.031-0.02-0.061-0.039-0.091-0.059
								c-0.026-0.017-0.053-0.034-0.079-0.051c-0.03-0.019-0.059-0.039-0.089-0.058c-0.027-0.018-0.054-0.036-0.081-0.054
								c-0.028-0.019-0.057-0.038-0.085-0.057c-0.028-0.019-0.055-0.038-0.083-0.056c-0.028-0.019-0.056-0.038-0.083-0.057
								c-0.028-0.019-0.056-0.039-0.083-0.058c-0.027-0.019-0.054-0.038-0.081-0.057c-0.028-0.02-0.057-0.04-0.085-0.06
								c-0.026-0.019-0.052-0.037-0.078-0.056c-0.029-0.021-0.059-0.042-0.088-0.064c-0.025-0.018-0.05-0.036-0.074-0.054
								c-0.03-0.022-0.06-0.044-0.09-0.066c-0.024-0.018-0.048-0.036-0.072-0.054c-0.031-0.023-0.062-0.046-0.093-0.07
								c-0.023-0.017-0.045-0.034-0.068-0.052c-0.031-0.024-0.063-0.048-0.094-0.072c-0.022-0.017-0.044-0.034-0.065-0.051
								c-0.033-0.026-0.066-0.051-0.098-0.077c-0.019-0.015-0.038-0.03-0.056-0.044c-0.035-0.028-0.07-0.055-0.105-0.083
								c-0.016-0.013-0.033-0.026-0.049-0.039c-0.038-0.03-0.076-0.061-0.113-0.091c-0.326-0.266-0.623-0.522-0.916-0.786
								c-0.058-0.053-0.104-0.094-0.149-0.135c-0.061-0.056-0.105-0.097-0.149-0.137c-0.064-0.06-0.107-0.1-0.15-0.14
								c-0.066-0.062-0.108-0.102-0.15-0.142c-0.067-0.064-0.109-0.105-0.15-0.145c-0.066-0.065-0.108-0.106-0.15-0.147
								c-0.066-0.066-0.108-0.108-0.15-0.15c-0.063-0.063-0.105-0.107-0.148-0.15c-0.062-0.064-0.106-0.108-0.149-0.153
								c-0.057-0.059-0.102-0.106-0.147-0.154c-1.491-1.572-2.844-3.359-4.005-5.269c0.062-0.137,0.122-0.241,0.176-0.306
								c0.199-0.234,1.092-0.365,2.087-0.438c1.471-0.108,3.08-0.089,3.164-0.088c-0.842,1.574,0.092,4.502,0.83,4.928
								c0.031,0.018,0.062,0.031,0.092,0.04c0.647,0.187,2.335-0.375,2.765-0.525l0.147,0.079c0.417,0.63,2.107,3.156,2.76,3.721
								c0.031,0.027,0.062,0.049,0.093,0.067c0.696,0.402,1.197-1.582,0.393-4.092c0.242,0.262,0.954,1.035,1.795,1.973
								c1.549,1.727,3.534,4.015,3.823,4.699c0.056,0.132,0.118,0.313,0.183,0.531c-0.603,0.289-1.256,0.488-1.952,0.591
								c-0.044,0.007-0.086,0.012-0.129,0.018c-0.047,0.006-0.09,0.011-0.133,0.016c-0.047,0.005-0.09,0.01-0.133,0.014
								c-0.048,0.004-0.091,0.008-0.135,0.012c-0.491,0.038-0.999,0.03-1.524-0.024c-0.054-0.005-0.095-0.01-0.136-0.015
								c-0.064-0.007-0.102-0.012-0.141-0.018c-0.071-0.01-0.108-0.015-0.146-0.02c-0.075-0.011-0.112-0.017-0.149-0.023
								c-0.075-0.012-0.112-0.019-0.149-0.025c-0.077-0.014-0.113-0.021-0.149-0.028c-0.015-0.003-0.029-0.006-0.044-0.009
								c-0.036-0.007-0.072-0.014-0.108-0.022c-0.015-0.003-0.029-0.006-0.044-0.009c-0.036-0.008-0.072-0.015-0.107-0.023
								c-0.016-0.004-0.032-0.007-0.047-0.011c-0.035-0.008-0.071-0.016-0.106-0.025c-0.016-0.004-0.031-0.008-0.047-0.011
								c-0.036-0.009-0.071-0.017-0.107-0.026c-0.016-0.004-0.031-0.008-0.047-0.012c-0.036-0.009-0.073-0.019-0.109-0.029
								c-0.079-0.021-0.117-0.032-0.156-0.043c-0.213-0.061-0.396-0.118-0.581-0.18c-0.015-0.005-0.029-0.01-0.044-0.015
								c-0.031-0.011-0.063-0.022-0.095-0.033c-0.022-0.008-0.045-0.016-0.067-0.023c-0.029-0.01-0.059-0.021-0.088-0.032
								c-0.024-0.009-0.049-0.018-0.073-0.027c-0.029-0.011-0.059-0.022-0.088-0.033c-0.025-0.009-0.049-0.019-0.074-0.028
								c-0.029-0.011-0.058-0.022-0.087-0.034c-0.025-0.01-0.051-0.02-0.076-0.03c-0.028-0.011-0.057-0.023-0.086-0.035
								c-0.026-0.011-0.052-0.021-0.079-0.032c-0.028-0.012-0.056-0.023-0.084-0.035c-0.027-0.011-0.053-0.023-0.08-0.034
								c-0.028-0.012-0.055-0.024-0.083-0.036c-0.028-0.012-0.056-0.025-0.084-0.037c-0.026-0.012-0.053-0.023-0.079-0.035
								c-0.029-0.013-0.058-0.026-0.088-0.04c-0.026-0.012-0.052-0.024-0.078-0.036c-0.029-0.014-0.058-0.027-0.088-0.041
								c-0.027-0.013-0.053-0.025-0.079-0.038c-0.029-0.014-0.058-0.028-0.088-0.042c-0.026-0.013-0.052-0.025-0.079-0.038
								c-0.03-0.015-0.06-0.03-0.09-0.045c-0.025-0.013-0.051-0.025-0.076-0.038c-0.031-0.016-0.063-0.032-0.094-0.048
								c-0.025-0.013-0.049-0.025-0.074-0.038c-0.032-0.017-0.065-0.034-0.097-0.051c-0.024-0.013-0.047-0.025-0.071-0.038
								c-0.034-0.018-0.069-0.037-0.103-0.056c-0.022-0.012-0.044-0.024-0.066-0.036
								C377.756,257.56,377.717,257.538,377.678,257.516z"/>
						</g>
						<g>
							<path style="fill:#FF9D6F;" d="M375.265,235.028c2.151,1.901,4.242,3.452,5.666,5.334c0.556,1.606,1.11,3.964,0.744,6.37
								c-0.036,0.085-0.071,0.165-0.107,0.238c-0.246,0.341-0.908,0.511-1.636,0.58c-0.451,0.043-0.927,0.047-1.347,0.031
								c-0.352-0.014-0.732-0.138-1.111-0.357c-0.379-0.219-0.759-0.533-1.109-0.925c-0.439-0.49-0.94-1.075-1.408-1.665
								c-0.7-0.882-1.327-1.777-1.565-2.383c-0.204-0.669-0.404-1.55-0.588-2.495c-0.136,0.044-0.3,0.042-0.485-0.065
								c-0.525-0.32-1.813-4.141-1.15-4.472c0.12-0.059,0.24-0.041,0.357,0.026c0.254,0.147,0.493,0.531,0.674,0.892
								c-0.217-1.493-0.345-2.565-0.352-2.622c0.008-0.167,0.001-0.344,0.001-0.52c0.002-0.739,0.112-1.388,0.311-1.936
								C372.65,232.102,373.567,233.525,375.265,235.028z"/>
						</g>
						<g>
							<path style="fill:#113C7A;" d="M383.722,240.978c0.189,0.348,0.346,0.74,0.458,1.181c0.801,3.176-1.881,6.681-2.825,6.135
								c-0.016-0.009-0.031-0.019-0.046-0.03c0.169-0.508,0.288-1.02,0.366-1.531c0.366-2.407-0.187-4.765-0.744-6.37
								c-0.435-1.254-0.849-2.01-0.871-2.049c0.039,0.007,0.773,0.143,1.664,0.657C382.423,239.374,383.195,240.007,383.722,240.978
								z"/>
						</g>
						<g>
							<path style="fill:#113C7A;" d="M382.36,234.584c0.774,1.086,2.373,3.802,2.418,7.744c0.051,4.403-1.987,8.217-2.171,11.009
								c-0.841-0.938-1.553-1.711-1.795-1.973c-0.006-0.018-0.012-0.036-0.018-0.055c-0.055-0.024-0.07-0.04-0.071-0.041
								l-0.047,0.082c-0.013,0.004-0.027,0.009-0.043,0.014c-0.113-0.161-0.22-0.322-0.317-0.482
								c-0.631-1.031-0.605-2.275-0.385-3.333c0.728-0.069,1.39-0.238,1.636-0.58c0.036-0.073,0.072-0.153,0.107-0.238
								c-0.078,0.51-0.197,1.023-0.366,1.531c0.015,0.011,0.03,0.021,0.046,0.03c0.945,0.545,3.627-2.959,2.825-6.135
								c-0.112-0.441-0.269-0.833-0.458-1.181c0.235-1.334,0.211-2.999-0.577-4.766C382.89,235.641,382.628,235.099,382.36,234.584z
								"/>
						</g>
						<g>
							<path style="fill:#113C7A;" d="M382.36,234.584c0.268,0.515,0.53,1.057,0.784,1.628c0.788,1.767,0.812,3.432,0.577,4.766
								c-0.527-0.972-1.299-1.604-1.998-2.008c-0.891-0.514-1.625-0.65-1.664-0.657c0.022,0.04,0.436,0.795,0.871,2.049
								c-1.424-1.882-3.515-3.433-5.666-5.334c-1.698-1.503-2.615-2.926-3.106-3.969c-0.483-1.025-0.552-1.649-0.555-1.682
								c0.993-2.109,2.49-2.187,4.957-1.109c0.247,0.108,0.491,0.232,0.734,0.372C379.149,229.711,380.859,231.705,382.36,234.584z"
								/>
						</g>
					</g>
				</g>
			</g>
		</g>
		<g>
			<g>
				<path style="fill:#FF4174;" d="M366.132,326.513c0,0-0.192,3.267,0.096,4.42c0.288,1.153,2.018,1.345,2.978,0.961
					c0.961-0.384,1.633-1.729,2.306-2.21s3.459-2.306,3.747-3.555c0.192-1.249-2.306-1.057-3.843-0.48s-3.267,0.961-3.267,0.961
					L366.132,326.513z"/>
				<path style="fill:#FF4174;" d="M386.798,321.011c0,0,1.248,3.025,2.009,3.938s2.402,0.334,3.1-0.43
					c0.698-0.764,0.719-2.268,1.116-2.993c0.397-0.725,2.112-3.581,1.828-4.831c-0.37-1.208-2.536,0.051-3.67,1.239
					c-1.134,1.188-2.524,2.286-2.524,2.286L386.798,321.011z"/>
				<path style="fill:#113C7A;" d="M352.392,310.66c0,0,11.914-5.38,15.757-5.573c3.267,0,1.345,21.522,0.961,22.483
					c-0.384,0.384-1.922,1.922-3.075,0.384c-0.577-2.114-1.153-13.067-1.729-13.836c-0.577-0.769-5.381,4.612-9.8,4.612
					C350.086,318.73,350.471,314.118,352.392,310.66z"/>
				<path style="fill:#113C7A;" d="M343.553,312.966c0,0-2.114,6.341,3.459,9.992c5.573,3.651,13.836,1.537,17.871-1.153
					c4.035-2.69,4.756-4.42,4.756-4.42s0.24-4.612-5.525-7.11s-9.8-1.345-9.8-1.345L343.553,312.966z"/>
				<g>
					<path style="fill:#FF4174;" d="M359.991,287.609c-2.245-3.607-7.125-4.67-7.125-4.67c-5.989-1.225-7.894,0.953-7.894,0.953
						s-1.951,2.296-1.951,5.397c0,2.127,2.234,8.263,2.387,13.132c-0.063,3.376-2.14,8.988-2.226,9.846
						c-0.168,1.675,5.527,6.532,15.911,3.852c1.172-0.67,1.675-1.508,1.675-1.508l0.113-12.553c0.047-0.702,0.094-1.433,0.143-2.217
						C361.542,291.572,359.991,287.609,359.991,287.609z"/>
					<path style="fill:#FF4174;" d="M344.972,283.892c0,0-4.345,2.503-5.012,13.955c0.556,2.113,3.891,3.224,6.449,1.557
						C348.966,297.736,346.315,285.836,344.972,283.892z"/>
					<path style="fill:#FF7C40;" d="M348.19,278.564c0,0,0.517,3.015,0,4.393c-0.086,0.689,2.929,3.015,5.599,2.412
						c1.551-0.344,1.465-1.12,1.465-1.12s-1.292-2.154-1.12-4.221C354.306,277.961,349.999,278.133,348.19,278.564z"/>
					<g>
						<path style="fill:#FF9D6F;" d="M358.268,272.491c0,3.925-3.182,7.107-7.107,7.107c-3.925,0-7.107-3.182-7.107-7.107
							c0-3.925,3.182-7.107,7.107-7.107C355.087,265.384,358.268,268.566,358.268,272.491z"/>
						<path style="fill:#FF9D6F;" d="M358.268,272.965c0,0,0.223,6.709-1.327,8.146c-1.551,1.437-4.068-0.935-7.874-1.827
							c-3.806-0.978,3.085-8.38,3.085-8.38L358.268,272.965z"/>
					</g>
					<path style="fill:#FFFFFF;" d="M356.638,284.43l-1.853-1.038c0,0-4.744-0.445-6.449-1.557l-0.889,1.26
						c0,0,1.186,2.298,4.225,2.594c3.039,0.296,4.448-0.89,4.448-0.89L356.638,284.43z"/>
				</g>
				<path style="fill:#113C7A;" d="M363.73,313.35c0,0,9.416-3.075,11.53-3.267c2.114-0.192,13.451,8.647,14.988,10.761
					c0.961,1.153-0.576,3.459-1.729,3.267c-1.153-0.192-13.451-7.686-14.412-7.879c-0.961-0.192-7.302,6.918-10.953,7.879
					C359.502,325.072,358.926,318.73,363.73,313.35z"/>
				<path style="fill:#113C7A;" d="M353.065,264.397c0,0,5.765,1.009,6.053,6.197c-0.144,4.035-3.459,4.9-3.891,5.332
					s-1.441-1.441-2.45,0.432c-1.009,1.874,0.432,2.306,1.009,3.026c0.288,0.721-0.865,1.585-2.018,1.729
					c-1.153,0.144-1.531,1.442-3.432,0.721c-1.901-0.721-2.189-2.739-3.63-4.756s-2.018-6.197-0.432-9.224
					C345.859,264.829,351.191,264.109,353.065,264.397z"/>
				<path style="fill:#113C7A;" d="M347.732,281.259c0,0-0.144-0.144-1.585,3.027c-1.441,3.171-2.162,4.756-0.577,8.359
					c1.585,3.603,2.018,5.332,2.018,5.332s2.594-2.162,1.874-6.918c-0.721-4.756-1.679-6.836-1.272-8.102
					C348.597,281.691,349.462,281.259,347.732,281.259z"/>
			</g>
			<path style="fill:#FF9D6F;" d="M376.573,277.014c0,0-1.095-2.189-0.973-3.162c0.122-0.973,1.338-0.608,1.581-1.581
				c0.243-0.973-0.122-4.743,0.608-4.986c0.73-0.243,0.973,5.351,0.973,5.351s1.095,0.243,1.581,1.946
				c0.487,1.703,0,3.162-0.365,3.77C379.613,278.96,376.573,277.014,376.573,277.014z"/>
			<path style="fill:#FF4174;" d="M356.638,284.43c0,0,3.759,0.489,6.192,2.678c2.432,2.189,6.081,4.865,8.027,4.378
				c1.946-0.487,4.865-12.405,5.108-15.567c0,0,2.432-1.216,4.135,1.216c1.459,2.432-2.676,17.513-5.351,19.945
				c-2.676,2.432-11.675,0.243-15.081-2.189C356.262,292.459,354.582,286.131,356.638,284.43z"/>
		</g>
		<g>
			<g>
				<g>
					<polygon style="fill:#689F38;" points="269.224,175.581 266.932,248.792 216.368,219.599 216.578,145.591 					"/>
				</g>
				<polygon style="fill:#FFFFFF;" points="204.735,155.406 217.705,148.2 269.224,177.563 259.677,189.992 205.996,178.283 				"/>
				<g>
					<polygon style="fill:#689F38;" points="252.444,185.005 252.234,259.013 200.221,228.983 200.43,154.975 					"/>
				</g>
				<path style="fill:#558B2F;" d="M261.867,185.002c-0.289,0.168-0.605,0.311-0.93,0.441c-0.085,0.034-0.171,0.066-0.258,0.098
					c-0.202,0.073-0.414,0.132-0.625,0.191c-0.219,0.062-0.441,0.12-0.668,0.166c-0.266,0.055-0.533,0.104-0.807,0.139
					c-0.067,0.008-0.133,0.021-0.201,0.028c-0.37,0.04-0.744,0.059-1.119,0.063c-0.06,0.001-0.119,0.001-0.179,0.001
					c-0.37-0.003-0.74-0.023-1.106-0.061c-0.056-0.006-0.111-0.012-0.166-0.018c-0.364-0.043-0.722-0.105-1.072-0.183
					c-0.063-0.014-0.125-0.031-0.188-0.046c-0.318-0.078-0.626-0.173-0.924-0.281c-0.054-0.02-0.112-0.035-0.165-0.056
					c-0.357-0.138-0.699-0.296-1.014-0.478l-0.21,74.008c0.3,0.173,0.621,0.326,0.958,0.459c0.018,0.007,0.038,0.012,0.056,0.019
					c0.054,0.021,0.111,0.036,0.166,0.056c0.193,0.07,0.385,0.141,0.586,0.198c0.11,0.032,0.225,0.055,0.338,0.083
					c0.063,0.016,0.125,0.032,0.188,0.046c0.057,0.013,0.111,0.029,0.168,0.041c0.217,0.045,0.438,0.083,0.66,0.115
					c0.08,0.011,0.162,0.018,0.243,0.027c0.056,0.007,0.111,0.013,0.167,0.019c0.08,0.008,0.158,0.02,0.239,0.027
					c0.218,0.018,0.437,0.03,0.657,0.035c0.07,0.002,0.14-0.001,0.21-0.001c0.06,0,0.119,0,0.178-0.001
					c0.098-0.001,0.197,0.002,0.295-0.001c0.248-0.008,0.495-0.025,0.74-0.049c0.029-0.003,0.056-0.009,0.085-0.012
					c0.068-0.007,0.133-0.019,0.201-0.028c0.189-0.024,0.38-0.045,0.566-0.079c0.083-0.015,0.159-0.043,0.241-0.06
					c0.228-0.047,0.448-0.105,0.669-0.166c0.116-0.033,0.24-0.051,0.353-0.088c0.094-0.03,0.18-0.07,0.271-0.103
					c0.087-0.032,0.173-0.064,0.259-0.098c0.325-0.131,0.641-0.273,0.93-0.441l10.412-6.051c0.027-0.016,0.054-0.032,0.081-0.048
					c0.061-0.037,0.114-0.077,0.172-0.115c0.081-0.053,0.164-0.105,0.24-0.16c0.066-0.048,0.125-0.098,0.186-0.147
					c0.07-0.056,0.141-0.111,0.205-0.169c0.013-0.012,0.028-0.022,0.041-0.034c0.026-0.024,0.044-0.05,0.069-0.074
					c0.103-0.1,0.197-0.201,0.283-0.304c0.019-0.023,0.044-0.044,0.062-0.066c0.018-0.022,0.029-0.046,0.046-0.068
					c0.057-0.077,0.109-0.155,0.157-0.233c0.02-0.033,0.047-0.064,0.066-0.097c0.009-0.017,0.015-0.034,0.024-0.051
					c0.037-0.069,0.067-0.138,0.098-0.208c0.017-0.04,0.041-0.08,0.056-0.121c0.005-0.014,0.007-0.028,0.012-0.042
					c0.024-0.066,0.04-0.133,0.057-0.2c0.012-0.045,0.03-0.089,0.039-0.134c0.002-0.012,0.002-0.024,0.004-0.036
					c0.013-0.07,0.018-0.141,0.024-0.212c0.004-0.045,0.014-0.09,0.016-0.135c0.001-0.02,0.001-0.039,0.001-0.059l0.21-74.008
					c0,0.065-0.011,0.13-0.017,0.196c-0.006,0.07-0.011,0.14-0.024,0.21c-0.01,0.057-0.028,0.114-0.043,0.171
					c-0.017,0.067-0.034,0.133-0.057,0.2c-0.019,0.054-0.045,0.108-0.068,0.162c-0.03,0.07-0.061,0.139-0.098,0.208
					c-0.027,0.05-0.059,0.099-0.089,0.148c-0.048,0.079-0.1,0.156-0.157,0.233c-0.034,0.045-0.07,0.09-0.107,0.134
					c-0.086,0.104-0.181,0.205-0.283,0.305c-0.037,0.036-0.071,0.072-0.11,0.108c-0.064,0.057-0.135,0.113-0.204,0.169
					c-0.061,0.049-0.121,0.099-0.187,0.147c-0.075,0.055-0.158,0.107-0.239,0.16c-0.084,0.055-0.163,0.11-0.254,0.163"/>
				<g>
					<path style="fill:#9CCC65;" d="M272.253,173.493c2.608,1.506,2.618,3.952,0.026,5.458l-10.412,6.051
						c-2.591,1.506-6.815,1.509-9.423,0.003l-52.013-30.03l3.661-2.128l50.564,29.193c1.647,0.951,4.307,0.951,5.943,0l6.563-3.814
						c1.636-0.951,1.628-2.492-0.019-3.442l-50.564-29.193l3.661-2.128L272.253,173.493z"/>
				</g>
				<g>
					<polygon style="fill:#9CCC65;" points="260.827,193.219 260.985,249.078 269.699,244.047 269.54,188.188 					"/>
				</g>
			</g>
			<g>
				<g>
					<polygon style="fill:#5155D4;" points="242.954,188.959 240.663,262.17 190.099,232.977 190.309,158.969 					"/>
				</g>
				<polygon style="fill:#FFFFFF;" points="178.465,168.784 191.435,161.578 242.954,190.941 233.407,203.37 179.726,191.661 				
					"/>
				<g>
					<polygon style="fill:#7986CB;" points="226.174,198.383 225.964,272.391 173.951,242.361 174.161,168.353 					"/>
				</g>
				<path style="fill:#5155D4;" d="M235.597,198.38c-0.289,0.168-0.605,0.311-0.93,0.441c-0.085,0.034-0.171,0.066-0.258,0.098
					c-0.202,0.073-0.414,0.132-0.625,0.191c-0.219,0.062-0.441,0.12-0.669,0.166c-0.266,0.055-0.533,0.104-0.807,0.139
					c-0.067,0.008-0.133,0.021-0.201,0.028c-0.37,0.04-0.744,0.059-1.119,0.063c-0.06,0.001-0.119,0.001-0.179,0.001
					c-0.37-0.003-0.74-0.023-1.106-0.061c-0.056-0.006-0.111-0.012-0.166-0.018c-0.364-0.043-0.722-0.105-1.072-0.183
					c-0.063-0.014-0.125-0.031-0.188-0.046c-0.318-0.078-0.626-0.173-0.924-0.281c-0.054-0.02-0.112-0.035-0.165-0.056
					c-0.357-0.138-0.699-0.296-1.014-0.478l-0.21,74.008c0.3,0.173,0.621,0.326,0.958,0.459c0.018,0.007,0.038,0.012,0.056,0.019
					c0.054,0.021,0.111,0.036,0.165,0.056c0.193,0.07,0.385,0.14,0.586,0.198c0.11,0.031,0.225,0.055,0.338,0.083
					c0.063,0.016,0.125,0.032,0.188,0.046c0.057,0.013,0.111,0.029,0.168,0.041c0.217,0.045,0.438,0.083,0.66,0.115
					c0.08,0.011,0.162,0.017,0.243,0.027c0.056,0.007,0.111,0.013,0.166,0.019c0.08,0.008,0.159,0.02,0.239,0.027
					c0.218,0.018,0.437,0.03,0.657,0.035c0.07,0.002,0.14-0.001,0.21-0.001c0.06,0,0.119,0,0.178-0.001
					c0.098-0.001,0.197,0.002,0.295-0.001c0.248-0.009,0.495-0.025,0.74-0.049c0.029-0.003,0.056-0.009,0.085-0.012
					c0.068-0.007,0.133-0.019,0.201-0.028c0.189-0.024,0.38-0.045,0.566-0.079c0.083-0.015,0.159-0.043,0.241-0.06
					c0.229-0.047,0.448-0.105,0.669-0.167c0.116-0.033,0.24-0.051,0.353-0.088c0.094-0.03,0.18-0.07,0.271-0.103
					c0.087-0.032,0.173-0.064,0.259-0.098c0.325-0.131,0.641-0.273,0.93-0.441l10.412-6.051c0.027-0.016,0.054-0.032,0.081-0.048
					c0.061-0.037,0.114-0.077,0.172-0.115c0.081-0.053,0.164-0.105,0.24-0.16c0.066-0.048,0.125-0.098,0.186-0.147
					c0.07-0.056,0.141-0.111,0.205-0.169c0.013-0.012,0.028-0.022,0.041-0.034c0.026-0.024,0.044-0.05,0.069-0.074
					c0.103-0.1,0.197-0.201,0.283-0.304c0.019-0.022,0.044-0.044,0.062-0.066c0.018-0.022,0.029-0.046,0.046-0.068
					c0.057-0.077,0.109-0.155,0.157-0.233c0.02-0.033,0.047-0.064,0.066-0.097c0.009-0.017,0.015-0.034,0.024-0.051
					c0.037-0.069,0.067-0.138,0.098-0.208c0.018-0.04,0.041-0.08,0.057-0.121c0.005-0.014,0.007-0.028,0.012-0.042
					c0.024-0.066,0.04-0.133,0.057-0.2c0.012-0.045,0.029-0.089,0.038-0.134c0.002-0.012,0.002-0.024,0.004-0.036
					c0.013-0.07,0.018-0.141,0.024-0.211c0.004-0.045,0.014-0.09,0.016-0.135c0.001-0.02,0.001-0.039,0.001-0.059l0.21-74.008
					c0,0.065-0.011,0.13-0.017,0.196c-0.006,0.07-0.011,0.14-0.024,0.21c-0.01,0.057-0.028,0.114-0.043,0.171
					c-0.017,0.067-0.034,0.133-0.057,0.2c-0.019,0.054-0.045,0.108-0.068,0.162c-0.03,0.07-0.061,0.14-0.098,0.208
					c-0.027,0.05-0.059,0.099-0.089,0.148c-0.048,0.079-0.1,0.157-0.157,0.233c-0.034,0.045-0.07,0.09-0.107,0.134
					c-0.086,0.104-0.181,0.205-0.283,0.305c-0.037,0.036-0.071,0.072-0.11,0.108c-0.064,0.057-0.135,0.113-0.204,0.169
					c-0.061,0.049-0.121,0.099-0.187,0.147c-0.075,0.055-0.158,0.107-0.239,0.16c-0.084,0.055-0.163,0.11-0.253,0.163"/>
				<g>
					<path style="fill:#00CFFF;" d="M245.983,186.871c2.609,1.506,2.618,3.952,0.026,5.458l-10.412,6.051
						c-2.592,1.506-6.815,1.509-9.423,0.003l-52.013-30.03l3.661-2.128l50.564,29.193c1.647,0.951,4.307,0.951,5.943,0l6.563-3.814
						c1.636-0.951,1.628-2.492-0.019-3.442l-50.564-29.193l3.661-2.128L245.983,186.871z"/>
				</g>
				<g>
					<polygon style="fill:#7986CB;" points="234.557,206.597 234.715,262.456 243.429,257.425 243.27,201.566 					"/>
				</g>
			</g>
			<g>
				<g>
					<polygon style="fill:#D23060;" points="216.523,202.256 214.231,275.467 163.667,246.274 163.877,172.266 					"/>
				</g>
				<polygon style="fill:#FFFFFF;" points="152.033,182.081 165.003,174.875 216.523,204.238 206.975,216.667 153.294,204.958 				
					"/>
				<g>
					<polygon style="fill:#FF4174;" points="199.742,211.68 199.532,285.688 147.519,255.658 147.729,181.65 					"/>
				</g>
				<path style="fill:#D23060;" d="M209.165,211.677c-0.289,0.168-0.605,0.311-0.93,0.441c-0.085,0.034-0.171,0.066-0.258,0.098
					c-0.202,0.073-0.414,0.132-0.625,0.191c-0.22,0.062-0.441,0.12-0.669,0.166c-0.265,0.055-0.533,0.104-0.807,0.139
					c-0.067,0.008-0.133,0.021-0.201,0.028c-0.37,0.04-0.744,0.059-1.12,0.063c-0.06,0.001-0.119,0.001-0.179,0.001
					c-0.37-0.003-0.74-0.023-1.106-0.061c-0.056-0.006-0.111-0.012-0.166-0.019c-0.364-0.043-0.722-0.104-1.072-0.183
					c-0.063-0.014-0.125-0.031-0.188-0.046c-0.318-0.078-0.626-0.173-0.924-0.281c-0.054-0.02-0.112-0.035-0.165-0.056
					c-0.357-0.138-0.699-0.296-1.014-0.478l-0.21,74.008c0.3,0.173,0.621,0.326,0.958,0.459c0.018,0.007,0.038,0.012,0.056,0.019
					c0.054,0.021,0.111,0.036,0.166,0.056c0.193,0.07,0.385,0.141,0.586,0.198c0.11,0.031,0.225,0.055,0.338,0.083
					c0.063,0.016,0.125,0.032,0.188,0.046c0.057,0.013,0.111,0.029,0.168,0.041c0.217,0.045,0.438,0.083,0.66,0.115
					c0.08,0.011,0.162,0.017,0.243,0.027c0.056,0.007,0.111,0.013,0.167,0.019c0.08,0.008,0.159,0.02,0.239,0.027
					c0.218,0.018,0.437,0.03,0.657,0.035c0.07,0.002,0.14-0.001,0.21-0.001c0.06,0,0.119,0,0.178-0.001
					c0.098-0.001,0.197,0.002,0.295-0.001c0.248-0.009,0.495-0.025,0.74-0.049c0.029-0.003,0.056-0.009,0.085-0.012
					c0.068-0.007,0.133-0.019,0.201-0.028c0.19-0.024,0.38-0.045,0.566-0.079c0.083-0.015,0.159-0.043,0.241-0.06
					c0.229-0.047,0.448-0.105,0.669-0.166c0.116-0.033,0.24-0.051,0.353-0.088c0.094-0.03,0.18-0.07,0.271-0.103
					c0.087-0.032,0.173-0.064,0.259-0.098c0.325-0.131,0.64-0.273,0.93-0.441l10.412-6.051c0.027-0.016,0.054-0.032,0.081-0.048
					c0.061-0.037,0.114-0.077,0.172-0.115c0.081-0.053,0.164-0.105,0.24-0.16c0.066-0.048,0.125-0.098,0.186-0.147
					c0.07-0.056,0.141-0.111,0.205-0.169c0.013-0.012,0.028-0.022,0.041-0.034c0.026-0.024,0.044-0.05,0.069-0.074
					c0.103-0.1,0.197-0.201,0.283-0.304c0.019-0.023,0.044-0.044,0.062-0.066c0.018-0.022,0.029-0.046,0.046-0.068
					c0.057-0.077,0.109-0.155,0.157-0.233c0.02-0.033,0.047-0.064,0.065-0.097c0.009-0.017,0.015-0.034,0.024-0.051
					c0.037-0.069,0.067-0.138,0.098-0.208c0.018-0.04,0.041-0.08,0.057-0.121c0.005-0.014,0.007-0.028,0.012-0.042
					c0.024-0.066,0.04-0.133,0.057-0.2c0.012-0.045,0.029-0.089,0.038-0.134c0.002-0.012,0.002-0.024,0.004-0.036
					c0.013-0.07,0.018-0.141,0.024-0.211c0.004-0.045,0.014-0.09,0.015-0.135c0.001-0.02,0.001-0.039,0.001-0.059l0.21-74.008
					c0,0.065-0.011,0.13-0.017,0.196c-0.006,0.07-0.011,0.14-0.024,0.21c-0.01,0.057-0.028,0.114-0.043,0.171
					c-0.017,0.067-0.034,0.133-0.057,0.199c-0.019,0.054-0.045,0.108-0.068,0.162c-0.03,0.07-0.061,0.14-0.098,0.208
					c-0.027,0.05-0.059,0.099-0.089,0.148c-0.048,0.079-0.1,0.157-0.157,0.233c-0.034,0.045-0.07,0.09-0.107,0.134
					c-0.086,0.104-0.181,0.205-0.283,0.305c-0.037,0.036-0.07,0.072-0.11,0.108c-0.064,0.057-0.135,0.113-0.204,0.169
					c-0.061,0.049-0.12,0.099-0.186,0.147c-0.075,0.055-0.158,0.107-0.239,0.16c-0.084,0.055-0.163,0.111-0.254,0.163"/>
				<g>
					<path style="fill:#FF77B3;" d="M219.551,200.168c2.609,1.506,2.618,3.952,0.026,5.458l-10.412,6.051
						c-2.592,1.506-6.815,1.509-9.423,0.003l-52.013-30.03l3.661-2.128l50.564,29.193c1.647,0.951,4.307,0.951,5.943,0l6.563-3.814
						c1.636-0.951,1.628-2.492-0.019-3.442l-50.564-29.193l3.661-2.128L219.551,200.168z"/>
				</g>
				<g>
					<polygon style="fill:#FF4174;" points="208.125,219.894 208.283,275.753 216.997,270.722 216.839,214.863 					"/>
				</g>
			</g>
		</g>
		<g>
			<g>
				<g>
					<path style="fill:#8AE6FF;" d="M449.081,300l-0.085,29.948c-0.003,1.191-1.294,1.934-2.325,1.338l-42.687-24.646
						c-0.481-0.278-0.777-0.792-0.775-1.347l0.085-29.948c0.003-1.191,1.294-1.934,2.325-1.338l42.687,24.645
						C448.787,298.931,449.082,299.444,449.081,300z"/>
				</g>
				<g>
					<path style="fill:#1AB8FF;" d="M442.656,302.998l-0.085,29.948c-0.003,1.191-1.294,1.934-2.325,1.338l-42.687-24.646
						c-0.481-0.278-0.777-0.792-0.775-1.347l0.085-29.948c0.003-1.191,1.294-1.934,2.325-1.338l42.688,24.646
						C442.362,301.929,442.658,302.442,442.656,302.998z"/>
				</g>
				<g>
					<path style="fill:#8AE6FF;" d="M413.815,294.626l-0.023,8.115c-0.001,0.323-0.351,0.524-0.63,0.363l-11.567-6.678
						c-0.13-0.075-0.211-0.215-0.21-0.365l0.023-8.115c0.001-0.323,0.351-0.524,0.63-0.363l11.567,6.678
						C413.736,294.336,413.816,294.475,413.815,294.626z"/>
				</g>
				<g>
					<path style="fill:#8AE6FF;" d="M413.815,305.399l-0.023,1.519c-0.001,0.323-0.351,0.524-0.63,0.363l-11.567-6.678
						c-0.13-0.075-0.211-0.215-0.21-0.365l0.023-1.52c0.001-0.323,0.351-0.524,0.63-0.363l11.567,6.678
						C413.736,305.109,413.816,305.248,413.815,305.399z"/>
				</g>
				<g>
					<path style="fill:#8AE6FF;" d="M413.815,309.842l-0.023,1.52c-0.001,0.323-0.351,0.524-0.63,0.362l-11.567-6.678
						c-0.13-0.075-0.211-0.214-0.21-0.365l0.023-1.519c0.001-0.323,0.351-0.524,0.63-0.363l11.567,6.678
						C413.736,309.553,413.816,309.692,413.815,309.842z"/>
				</g>
				<g>
					<g>
						<path style="fill:#FFFFFF;" d="M423.325,303.095l4.236,13.466l-2.27-1.31l-0.841-2.846l-4.447-2.567l-0.854,1.867
							l-2.326-1.343l4.312-8.531L423.325,303.095z M423.744,310.061l-1.507-5.089l-1.529,3.336L423.744,310.061"/>
					</g>
					<g>
						<polygon style="fill:#FFFFFF;" points="431.415,308.613 431.407,311.286 429.028,309.912 429.022,311.829 431.402,313.203 
							431.394,315.875 433.159,316.894 433.167,314.222 435.534,315.589 435.539,313.672 433.172,312.305 433.18,309.633 						"/>
					</g>
				</g>
			</g>
			<g>
				<g>
					<path style="fill:#61E041;" d="M404.317,203.446l-0.076,26.875c-0.003,1.059-1.151,1.718-2.067,1.186l-16.593-9.634
						c-0.614-0.357-1.399-0.187-1.811,0.391l-0.373,0.523l0,0c-0.636,0.892-2.008,0.72-2.403-0.301l-0.543-1.399l-0.908-2.35
						c-0.114-0.294-0.325-0.541-0.599-0.698l-14.006-8.027c-0.429-0.246-0.693-0.703-0.692-1.198l0.076-26.879
						c0.003-1.058,1.148-1.716,2.064-1.188l37.243,21.502C404.056,202.497,404.318,202.953,404.317,203.446z"/>
				</g>
				<g>
					<g style="enable-background:new    ;">
						<g>
							<polygon style="fill:#FFFFFF;" points="377.823,210.11 377.817,212.027 370.723,207.931 370.728,206.014 							"/>
						</g>
						<g>
							<polygon style="fill:#FFFFFF;" points="385.772,206.563 385.766,208.481 370.746,199.809 370.751,197.891 							"/>
						</g>
						<g>
							<polygon style="fill:#FFFFFF;" points="396.071,204.752 396.066,206.67 370.768,192.064 370.773,190.146 							"/>
						</g>
					</g>
					<g>
						<polygon style="fill:#FFFFFF;" points="381.593,207.547 381.587,209.472 370.736,203.207 370.742,201.282 						"/>
					</g>
					<g>
						<polygon style="fill:#FFFFFF;" points="396.06,208.587 396.055,210.505 370.757,195.9 370.763,193.982 						"/>
					</g>
					<g>
						<polygon style="fill:#FFFFFF;" points="386.831,215.311 386.826,217.228 379.731,213.132 379.737,211.215 						"/>
					</g>
					<g>
						<polygon style="fill:#FFFFFF;" points="395.839,220.512 395.834,222.429 388.739,218.333 388.745,216.415 						"/>
					</g>
				</g>
			</g>
		</g>
		<g>
			<g>
				<path style="fill:#58AFFB;" d="M332.483,187.778c1.539,0.888,2.785,3.046,2.78,4.814l-0.016,5.595
					c-0.005,1.772-1.259,2.483-2.798,1.594l-26.156-15.101l-1.255,2.141l-1.235-3.579l-2.932-1.693
					c-1.539-0.888-2.781-3.041-2.776-4.813l0.016-5.596c0.005-1.768,1.256-2.485,2.794-1.596L332.483,187.778z"/>
			</g>
			<g>
				
					<linearGradient id="SVGID_00000166676087494249112830000016101916842577334419_" gradientUnits="userSpaceOnUse" x1="280.4361" y1="269.9448" x2="315.5135" y2="269.9448">
					<stop  offset="0" style="stop-color:#5155D4"/>
					<stop  offset="1" style="stop-color:#45F7FF"/>
				</linearGradient>
				
					<ellipse style="opacity:0.32;fill:url(#SVGID_00000166676087494249112830000016101916842577334419_);" cx="297.975" cy="269.945" rx="17.539" ry="11.143"/>
				<g>
					<path style="fill:#113C7A;" d="M294.408,265.604c0,0-0.642,1.069-1.996,1.782c-1.355,0.713-2.139,1.426-2.139,1.996
						c0,0.57,0.856,0.856,2.068,0.784c1.212-0.071,1.925-1.426,2.781-1.782c0.856-0.356,1.854-0.428,2.139-0.856
						c0.285-0.428,0-2.139,0-2.139L294.408,265.604z"/>
					<path style="fill:#113C7A;" d="M303.356,268.741c0,0-0.107,0.998-0.677,1.426c-0.57,0.428-0.998,1.141-1.925,1.497
						c-0.927,0.357-1.497,1.141-1.497,1.64c0,0.499,1.996,0.856,3.137,0.428c1.141-0.428,2.353-1.996,2.852-2.21
						c0.499-0.214,0.856-0.784,0.927-1.141c0.071-0.356-0.214-1.711-0.214-1.711L303.356,268.741z"/>
					<path style="fill:#113C7A;" d="M309.297,234.449c0,0-0.357,5.032-0.952,8.356c-0.595,3.324-1.461,25.264-2.198,26.13
						c-0.736,0.866-1.807,0.774-2.783-0.175c-0.976-0.949-1.893-27.998-1.893-27.998l-2.975-6.162L309.297,234.449z"/>
					<path style="fill:#113C7A;" d="M295.335,231.949c0,0-1.426,26.952-1.283,33.227c0,1.854,2.852,2.139,3.565,0.285
						c0.713-1.854,3.708-28.235,3.422-31.658C300.754,230.381,295.763,229.525,295.335,231.949z"/>
					<path style="fill:#047CFF;" d="M304.95,208.861c0,0,5.562,3.974,6.112,5.296c0.55,1.322,0.668,5.001-0.479,7.453
						c-1.146,2.453-0.727,11.477-1.14,13.242c-0.413,1.765-5.173,2.322-8.119,1.753c-2.945-0.57-6.508-2.701-6.397-6.135
						c0.111-3.435,0.038-9.839-0.149-11.386c-0.187-1.547,0.016-5.433,0.734-8.038c0.151-0.55,2.001-1.127,2.001-1.127
						S299.467,208.629,304.95,208.861z"/>
					<path style="fill:#FF7C40;" d="M300.114,208.112c0,0,0.014,0.069-0.002,0.179c-0.061,0.407-0.264,1.45-0.302,1.886
						c-0.036,0.417,0.437,1.14,1.564,1.118c1.127-0.023,3.039-0.494,3.675-1.837c-0.051-0.239,0.029-2.726,0.188-3.966
						L300.114,208.112z"/>
					<g>
						<path style="fill:#FF9D6F;" d="M297.292,200.047c0.645-3.447,3.376-5.404,6.465-4.681c0,0,3.348,0.335,4.836,3.276
							c1.487,2.941-0.698,5.413-2.096,6.973c-0.59,0.64-1.036,1.134-1.317,1.449c-0.102,0.119-0.202,0.239-0.308,0.347
							c-0.019,0.022-0.03,0.034-0.03,0.034l-0.004-0.003c-0.955,0.955-2.051,1.496-2.862,1.737c-1.347,0.401-2.94,0.172-3.799-0.746
							C297.317,207.517,296.647,203.494,297.292,200.047z"/>
					</g>
					<path style="fill:#113C7A;" d="M297.23,198.047c0,0,0.428,3.209,6.096,4.064c0.321-0.107,0.856,0,0.856,0l-0.321,2.139
						l0.856,0.107c0,0-0.214-1.284,0.856-1.39c1.069-0.107,0.321,2.888-0.642,3.102l-0.09,1.377c0,0,4.154-2.767,4.796-5.869
						c0.642-3.102-1.176-4.171-1.176-4.171s-0.535-1.925-3.743-3.102C301.508,193.127,297.123,196.122,297.23,198.047z"/>
					<path style="fill:#047CFF;" d="M295.647,210.828c0,0-5.561,8.182-6.203,10.321l-5.027-4.813c0,0-1.283-0.214-2.139,1.39
						c-0.856,1.604,0,2.139,0,2.139s6.096,6.417,7.487,6.417c1.39,0,7.059-8.556,7.059-8.877
						C296.823,217.084,295.647,210.828,295.647,210.828z"/>
					<path style="fill:#FF9D6F;" d="M282.797,216.411l-0.578-0.642l-0.298-2.606c0,0-0.578,0-0.77,0.385
						c-0.192,0.385-0.151,1.258-0.151,1.258s-3.016-2.759-3.209-2.631c-0.193,0.128-0.128,0.642-0.128,0.642l2.182,2.182
						c0,0-0.449,1.476-0.321,1.989c0.128,0.513,0.706,0.898,1.027,1.027c0.321,0.128,1.155-0.128,1.155-0.128l0.834,0.642
						c0,0,0.77-0.578,1.091-1.348L282.797,216.411z"/>
					<path style="fill:#047CFF;" d="M311.172,214.293c0,0,1.355,10.624,1.212,12.478c-0.143,1.854-8.271,6.417-8.271,6.417
						l-2.424-3.85c0,0,5.276-3.28,5.276-3.993c0-0.713-0.285-9.697-0.285-9.697L311.172,214.293z"/>
					<path style="fill:#FF9D6F;" d="M301.425,230.714l-0.713,0.285l-2.424-0.214l-0.285,0.642l1.355,0.428l-2.282,2.71l0.428,0.285
						l2.638,0.285l1.783-2.353l0.713-0.285C302.637,232.496,302.281,231.213,301.425,230.714z"/>
				</g>
			</g>
		</g>
		<g>
			<g>
				<g>
					<g style="opacity:0.32;">
						
							<linearGradient id="SVGID_00000173121551962435453850000018226743273540828580_" gradientUnits="userSpaceOnUse" x1="368.6529" y1="304.7795" x2="285.2672" y2="420.634">
							<stop  offset="0" style="stop-color:#5155D4"/>
							<stop  offset="1" style="stop-color:#45F7FF"/>
						</linearGradient>
						<path style="fill:url(#SVGID_00000173121551962435453850000018226743273540828580_);" d="M397.085,369.652l-81.898,47.594
							c-3.444,2.001-7.695,2.007-11.145,0.016l-59.904-35.52c-3.201-1.848-3.207-6.465-0.012-8.323l82.393-47.882
							c3.138-1.823,7.011-1.829,10.154-0.014l60.4,35.807C400.274,363.177,400.28,367.795,397.085,369.652z"/>
					</g>
					<g>
						<g>
							<g>
								<polygon style="fill:#1AE5FF;" points="387.372,351.109 387.375,349.989 387.425,349.96 387.375,349.932 387.375,349.929 
									387.373,349.93 327.966,315.632 250.009,360.935 249.973,373.536 309.175,407.716 309.174,407.865 309.303,407.79 
									309.432,407.865 309.432,407.715 387.132,362.561 387.134,361.873 309.434,407.052 309.465,396.319 								"/>
								<g>
									<g>
										<polygon style="fill:#F2F8FD;" points="386.71,351.404 309.378,396.215 309.475,407.026 386.71,362.119 										"/>
									</g>
									<g>
										<polygon style="fill:#EAEEEE;" points="309.346,396.206 309.507,407.026 251.136,373.182 251.166,362.711 										"/>
									</g>
								</g>
							</g>
							<g>
								<polygon style="fill:#F2F8FD;" points="360.26,355.636 349.922,361.644 307.094,336.917 317.432,330.91 								"/>
							</g>
						</g>
						<g>
							<g>
								<polygon style="fill:#FF4174;" points="384.255,334.417 384.258,333.348 384.305,333.32 384.258,333.293 384.258,333.29 
									384.256,333.291 327.545,300.55 253.127,343.797 253.092,355.826 309.607,388.454 309.607,388.596 309.729,388.525 
									309.853,388.596 309.853,388.453 384.025,345.349 384.027,344.692 309.855,387.82 309.884,377.575 								"/>
								<g>
									<g>
										<polygon style="fill:#F2F8FD;" points="383.623,334.699 309.801,377.475 309.893,387.796 383.623,344.927 										"/>
									</g>
									<g>
										<polygon style="fill:#EAEEEE;" points="309.77,377.466 309.924,387.796 254.203,355.488 254.231,345.492 										"/>
									</g>
								</g>
							</g>
							<g>
								<polygon style="fill:#F2F8FD;" points="358.373,338.738 348.505,344.474 307.621,320.869 317.489,315.134 								"/>
							</g>
						</g>
					</g>
					<g>
						<g>
							<polygon style="fill:#047CFF;" points="253.881,322.61 253.878,321.541 253.83,321.513 253.878,321.486 253.878,321.483 
								253.88,321.485 310.59,288.743 385.009,331.99 385.043,344.019 328.529,376.648 328.529,376.789 328.407,376.718 
								328.283,376.789 328.283,376.646 254.11,333.542 254.109,332.885 328.281,376.013 328.252,365.768 							"/>
							<g>
								<g>
									<polygon style="fill:#F2F8FD;" points="254.513,322.892 328.335,365.668 328.242,375.989 254.513,333.12 									"/>
								</g>
								<g>
									<polygon style="fill:#EAEEEE;" points="328.365,365.659 328.212,375.989 383.933,343.681 383.905,333.685 									"/>
								</g>
							</g>
						</g>
						<g>
							<polygon style="fill:#F2F8FD;" points="279.762,326.932 289.631,332.667 330.515,309.062 320.646,303.327 							"/>
						</g>
					</g>
				</g>
				<g>
					<path style="fill:#5155D4;" d="M295.361,303.395c0,0,3.761-0.403,3.627,5.374c-0.403,5.911-1.545,11.822-3.963,13.031
						c-2.418,1.209-4.702-1.881-3.627-6.045C292.473,311.59,293.48,304.067,295.361,303.395z"/>
					<g>
						<ellipse style="opacity:0.11;fill:#392836;" cx="299.184" cy="336.859" rx="20.992" ry="13.337"/>
						<g>
							<path style="fill:#113C7A;" d="M298.523,284.723c0,0-3.213,4.121-2.515,8.731c0.698,4.61,4.75,4.401,5.448,6.915
								c0.698,2.515-1.956,6.147,1.676,8.522c3.632,2.375,5.309,1.816,6.287,6.845c0.978,5.029,4.47,7.684,10.478,8.242
								c6.007,0.559,10.198-6.706,8.662-12.014c-1.537-5.309-6.845-3.632-7.963-7.963c-1.117-4.331-0.698-7.754-4.47-9.43
								c-3.772-1.677-2.375-8.033-6.147-9.989C306.126,282.585,301.317,281.509,298.523,284.723z"/>
							<path style="fill:#5155D4;" d="M284.273,369.225c0,0-5.029,0.21-6.007,0.908c-0.978,0.699,5.309,2.096,7.404,1.676
								c1.397-0.419,1.537-2.235,1.537-2.235L284.273,369.225z"/>
							<g>
								<path style="fill:#5155D4;" d="M277.707,366.239c0,0-5.029,0.21-6.007,0.908c-0.978,0.698,5.309,2.095,7.404,1.676
									c1.397-0.419,1.537-2.235,1.537-2.235L277.707,366.239z"/>
								<path style="fill:#113C7A;" d="M305.158,327.472c0,0,1.677,7.963-3.772,10.268c-5.448,2.305-11.735,5.239-11.735,5.239
									s-5.239,20.536-9.22,24.099c0,0-1.886,0-2.724-0.838c0,0,6.287-24.937,7.544-28.29c1.257-3.353,10.687-10.268,10.687-10.268
									L305.158,327.472z"/>
							</g>
							<path style="fill:#113C7A;" d="M311.725,330.405c0,0,1.676,7.963-3.772,10.268c-5.448,2.305-11.735,5.239-11.735,5.239
								s-5.239,20.536-9.22,24.099c0,0-1.886,0-2.724-0.838c0,0,6.287-24.937,7.544-28.29c1.257-3.353,10.687-10.268,10.687-10.268
								L311.725,330.405z"/>
							<g>
								<path style="fill:#1AE5FF;" d="M306.889,300.785c0,0,6.91,4.937,7.593,6.579c0.683,1.642,1.649,6.754-0.594,9.26
									c-3.885,4.34-1.546,11.798-2.059,13.991c-0.513,2.193-5.785,2.465-9.444,1.758c-3.659-0.708-7.048-2.579-6.91-6.846
									c0.138-4.267-0.99-10.12-1.222-12.042c-0.232-1.922,0.02-6.75,0.913-9.986c0.188-0.683,2.486-1.399,2.486-1.399
									S300.077,300.496,306.889,300.785z"/>
								<path style="fill:#E0A082;" d="M300.881,299.854c0,0,0.018,0.086-0.003,0.223c-0.076,0.506-0.328,1.802-0.375,2.343
									c-0.045,0.519,0.543,1.417,1.943,1.389c1.4-0.028,3.776-0.614,4.566-2.282c-0.064-0.297,0.036-3.386,0.233-4.927
									L300.881,299.854z"/>
								<path style="fill:#F5B697;" d="M296.999,290.543c0.75-4.005,3.923-6.279,7.512-5.439c0,0,3.89,0.39,5.618,3.807
									c1.729,3.417-0.81,6.29-2.436,8.102c-0.686,0.744-1.203,1.318-1.53,1.684c-0.119,0.138-0.235,0.278-0.358,0.403
									c-0.023,0.026-0.035,0.039-0.035,0.039l-0.004-0.003c-1.11,1.11-2.384,1.739-3.325,2.019
									c-1.565,0.466-3.416,0.199-4.415-0.866C297.028,299.223,296.25,294.548,296.999,290.543z"/>
								<path style="fill:#1AE5FF;" d="M295.963,305.153c0,0-4.783,7.706-3.189,10.364c1.594,2.657,5.448,2.392,5.448,2.392
									l2.657-8.238L295.963,305.153z"/>
							</g>
							<path style="fill:#113C7A;" d="M296.357,293.245c0,0,2.864,0.279,4.54-1.676c1.676-1.956,4.051,0,6.007-1.676
								c0,0-0.838,2.096,0,4.191c0.838,2.096,1.117,5.309,1.117,5.309l3.632-5.728v-5.029l-4.61-4.331l-6.147-0.279l-2.934,2.794
								C297.964,286.818,296.078,291.149,296.357,293.245z"/>
						</g>
					</g>
					<path style="fill:#5155D4;" d="M312.489,305.813c0,0,3.762-0.403,3.627,5.374c-0.403,5.911-1.545,11.822-3.963,13.031
						c-2.418,1.209-4.702-1.881-3.627-6.045C309.601,314.008,310.608,306.485,312.489,305.813z"/>
					<g>
						<g>
							<path style="fill:#58AFFB;" d="M307.781,339.679c-0.001,0.003-0.001,0.005-0.002,0.008c-0.008,0.023-0.02,0.045-0.034,0.066
								c-0.003,0.004-0.005,0.008-0.008,0.012c-0.016,0.022-0.034,0.042-0.056,0.062c-0.015,0.013-0.033,0.025-0.051,0.038
								c-0.015,0.01-0.027,0.021-0.044,0.031l-10.634,6.18c-0.043,0.025-0.091,0.045-0.141,0.062
								c-0.018,0.006-0.036,0.011-0.054,0.017c-0.023,0.007-0.047,0.013-0.071,0.018c-0.029,0.006-0.058,0.011-0.087,0.015
								c-0.007,0.001-0.014,0.002-0.02,0.003c-0.04,0.004-0.08,0.006-0.12,0.007c-0.006,0-0.013,0-0.019,0
								c-0.04,0-0.079-0.003-0.119-0.007c-0.006-0.001-0.012-0.001-0.018-0.002c-0.039-0.005-0.077-0.011-0.115-0.02
								c-0.007-0.002-0.014-0.003-0.021-0.005c-0.034-0.008-0.068-0.019-0.1-0.03c-0.006-0.002-0.012-0.004-0.017-0.006
								c-0.039-0.015-0.075-0.032-0.109-0.052l-18.703-10.798c-0.141-0.081-0.211-0.188-0.211-0.294l-0.001,0.388
								c0,0.107,0.07,0.213,0.211,0.294l18.703,10.798c0.033,0.019,0.067,0.035,0.104,0.05c0.002,0.001,0.004,0.001,0.005,0.002
								c0.006,0.002,0.012,0.004,0.017,0.006c0.021,0.008,0.043,0.016,0.065,0.022c0.011,0.003,0.023,0.006,0.035,0.009
								c0.007,0.002,0.014,0.003,0.021,0.005c0.006,0.001,0.013,0.003,0.019,0.005c0.023,0.005,0.047,0.009,0.071,0.012
								c0.008,0.001,0.017,0.002,0.025,0.003c0.006,0.001,0.012,0.001,0.018,0.002c0.009,0.001,0.018,0.002,0.027,0.003
								c0.023,0.002,0.047,0.003,0.07,0.004c0.007,0,0.014,0,0.021,0c0.006,0,0.013,0,0.019,0c0.011,0,0.022,0,0.033,0
								c0.026-0.001,0.053-0.003,0.079-0.005c0.003,0,0.006-0.001,0.008-0.001c0.007-0.001,0.014-0.002,0.021-0.003
								c0.021-0.003,0.041-0.005,0.061-0.009c0.009-0.002,0.017-0.005,0.026-0.006c0.024-0.005,0.048-0.011,0.071-0.018
								c0.012-0.003,0.026-0.005,0.038-0.009c0.006-0.002,0.01-0.005,0.016-0.007c0.05-0.017,0.098-0.037,0.141-0.062l10.634-6.18
								c0.003-0.002,0.006-0.003,0.009-0.005c0.013-0.008,0.023-0.017,0.035-0.026c0.017-0.012,0.036-0.024,0.05-0.037
								c0.001-0.001,0.003-0.002,0.005-0.004c0.017-0.015,0.031-0.031,0.044-0.048c0.003-0.004,0.005-0.008,0.008-0.011
								c0.003-0.004,0.005-0.008,0.008-0.012c0.004-0.007,0.009-0.013,0.013-0.02c0.008-0.013,0.014-0.027,0.019-0.04
								c0.001-0.002,0.001-0.004,0.002-0.006c0.001-0.003,0.001-0.005,0.002-0.008c0.003-0.009,0.006-0.017,0.007-0.026
								c0.003-0.014,0.004-0.027,0.005-0.041c0-0.002,0-0.004,0-0.006l0.001-0.388C307.793,339.63,307.788,339.654,307.781,339.679z
								"/>
							<g>
								<path style="fill:#1AE5FF;" d="M307.581,339.31c0.281,0.163,0.283,0.424,0.005,0.586l-10.634,6.18
									c-0.278,0.162-0.73,0.162-1.011-0.001l-18.703-10.798c-0.28-0.162-0.281-0.423-0.003-0.585l10.634-6.18
									c0.278-0.161,0.73-0.162,1.01,0L307.581,339.31z"/>
							</g>
							<g>
								<g>
									
										<linearGradient id="SVGID_00000128485732445955417710000009706605072630635916_" gradientUnits="userSpaceOnUse" x1="287.4286" y1="335.0413" x2="288.7786" y2="341.9502">
										<stop  offset="0" style="stop-color:#FFFFFF"/>
										<stop  offset="1" style="stop-color:#8AE6FF"/>
									</linearGradient>
									<path style="fill:url(#SVGID_00000128485732445955417710000009706605072630635916_);" d="M296.092,333.502
										c0.248,0.143,0.25,0.374,0.004,0.517l-9.387,5.455c-0.245,0.143-0.644,0.143-0.893-0.001l-7.317-4.238
										c-0.247-0.143-0.248-0.374-0.003-0.516l9.387-5.455c0.245-0.143,0.644-0.143,0.891,0L296.092,333.502z"/>
								</g>
								<path style="fill:#58AFFB;" d="M286.71,339.474c0,0-0.059,0.237,0.418,0.535c0.477,0.298,9.053,5.301,9.053,5.301
									l9.113-5.658l-0.417-0.417l-8.696-4.646l-7.743,4.288L286.71,339.474z"/>
								
									<linearGradient id="SVGID_00000064347832384084453460000008534687979398753715_" gradientUnits="userSpaceOnUse" x1="295.8715" y1="339.1049" x2="300.7157" y2="346.6491">
									<stop  offset="0" style="stop-color:#FFFFFF"/>
									<stop  offset="1" style="stop-color:#8AE6FF"/>
								</linearGradient>
								<path style="fill:url(#SVGID_00000064347832384084453460000008534687979398753715_);" d="M286.71,339.474
									c0,0,2.383-0.835,3.813,0.178c1.429,1.013,4.824,4.765,5.777,5.241l9.053-5.658c0,0-4.169-4.169-6.194-5.003
									c-2.025-0.834-3.062-0.213-3.062-0.213L286.71,339.474z"/>
							</g>
						</g>
						<g>
							<g>
								<path style="fill:#8AE6FF;" d="M289.583,336.24c0.13,0.075,0.131,0.199,0.001,0.274c-0.129,0.075-0.343,0.075-0.473,0
									l-5.67-3.273c-0.13-0.075-0.131-0.199-0.002-0.274c0.129-0.075,0.343-0.075,0.473,0L289.583,336.24z"/>
							</g>
							<g>
								<path style="fill:#8AE6FF;" d="M285.512,334.913c0.13,0.075,0.131,0.199,0.002,0.274c-0.129,0.075-0.343,0.075-0.473,0
									l-2.482-1.433c-0.13-0.075-0.131-0.199-0.002-0.274c0.129-0.075,0.343-0.075,0.473,0L285.512,334.913z"/>
							</g>
							<g>
								<path style="fill:#8AE6FF;" d="M290.24,334.502c0.13,0.075,0.129,0.198,0,0.273c-0.13,0.075-0.341,0.076-0.471,0.001
									l-4.499-2.598c-0.13-0.075-0.131-0.199-0.002-0.274c0.13-0.075,0.343-0.075,0.473,0L290.24,334.502z"/>
							</g>
							<g>
								<path style="fill:#8AE6FF;" d="M289.112,332.82c0.13,0.075,0.133,0.198,0.002,0.274c-0.129,0.075-0.341,0.074-0.471-0.001
									l-2.482-1.433c-0.13-0.075-0.133-0.198-0.004-0.273c0.131-0.076,0.343-0.075,0.473,0L289.112,332.82z"/>
							</g>
							<g>
								<path style="fill:#8AE6FF;" d="M290.503,335.706c0.13,0.075,0.133,0.198,0.004,0.273c-0.131,0.076-0.343,0.075-0.473,0
									l-5.67-3.273c-0.13-0.075-0.133-0.198-0.002-0.274c0.129-0.075,0.341-0.074,0.471,0.001L290.503,335.706z"/>
							</g>
							<g>
								<path style="fill:#8AE6FF;" d="M293.183,334.148c0.13,0.075,0.133,0.198,0.003,0.273c-0.129,0.075-0.343,0.075-0.473,0
									l-5.67-3.273c-0.13-0.075-0.131-0.199-0.002-0.274c0.129-0.075,0.341-0.074,0.471,0.001L293.183,334.148z"/>
							</g>
						</g>
					</g>
					<path style="fill:#F5B697;" d="M302.548,333.89c0,0-2.015,0.269-2.687,0.806c-0.672,0.537-2.149,3.224-1.612,4.03
						c0.537,0.806,2.284,0.134,3.358-0.269c1.075-0.403,2.015-1.478,2.015-1.478s1.881,0.403,2.149-2.284
						C306.041,332.009,302.548,333.89,302.548,333.89z"/>
					<path style="fill:#5155D4;" d="M309.533,320.59c0,0-6.035,9.863-7.551,12.79c0.095,1.315,2.312,2.121,3.521,2.323
						c1.41,0,8.463-8.866,8.866-15.314C314.773,313.94,309.533,320.59,309.533,320.59z"/>
					<path style="fill:#5155D4;" d="M294.421,319.381c0,0-1.41-2.418-4.836-4.03c-3.426-1.612-6.247-3.023-6.247-3.023
						s-1.612,1.814-1.814,4.03c0.605,1.411,8.866,7.053,12.292,6.448C297.04,321.799,294.421,319.381,294.421,319.381z"/>
					<path style="fill:#F5B697;" d="M283.338,314.276c0,0,0.134-2.821-0.537-4.433c-0.672-1.612-1.478,1.746-1.478,1.746
						s-3.09-3.224-3.761-2.956c-0.672,0.269-1.612,3.09,0,5.105c1.612,2.015,4.03,3.224,4.97,2.552
						C283.472,315.62,283.338,314.276,283.338,314.276z"/>
				</g>
			</g>
			<g>
				<g>
					<path style="fill:#58AFFB;" d="M202.99,307.003c-1.591,0.919-2.88,3.15-2.875,4.979l0.016,5.787
						c0.005,1.833,1.302,2.568,2.894,1.649l27.052-15.618l1.298,2.215l1.277-3.702l3.032-1.75c1.592-0.919,2.877-3.145,2.871-4.977
						l-0.016-5.787c-0.005-1.829-1.299-2.57-2.89-1.651L202.99,307.003z"/>
				</g>
				<g>
					
						<linearGradient id="SVGID_00000003821217644867516330000014540372051862838952_" gradientUnits="userSpaceOnUse" x1="553.9662" y1="394.1927" x2="591.1601" y2="394.1927" gradientTransform="matrix(1 0 0 1 -333.058 0)">
						<stop  offset="0" style="stop-color:#5155D4"/>
						<stop  offset="1" style="stop-color:#45F7FF"/>
					</linearGradient>
					
						<ellipse style="opacity:0.32;fill:url(#SVGID_00000003821217644867516330000014540372051862838952_);" cx="239.505" cy="394.193" rx="18.597" ry="11.05"/>
					<g>
						<path style="fill:#113C7A;" d="M231.794,391.813c0,0-0.239,1.752,0.08,2.469c0.318,0.637,1.593,1.115,2.469,0.478
							c0.876-0.637,2.389-2.23,2.389-2.23s2.549-1.354,2.788-2.071c0.239-0.717-0.637-1.354-1.354-1.195
							c-0.717,0.159-2.788,1.434-3.744,1.434C233.467,390.698,232.112,390.937,231.794,391.813z"/>
						<path style="fill:#113C7A;" d="M229.168,354.512c0,0,2.229,36.79,2.507,37.856c0.278,1.066,3.17,1.678,3.706-0.015
							c0.34-1.075,1.18-35.121,1.18-35.121L229.168,354.512z"/>
						<path style="fill:#113C7A;" d="M239.166,394.002c-0.125,0.108-0.194,0.264-0.195,0.429c-0.005,0.506,0.019,1.634,0.305,2.073
							c0.374,0.574,1.544,1.182,2.768,0.517c1.032-0.56,4.207-2.934,4.852-3.46c0.391-0.319,0.565-0.713,0.642-1.015
							c0.069-0.272-0.07-0.553-0.326-0.667c-0.45-0.201-1.22-0.451-1.908-0.219c-1.052,0.354-2.376,1.493-3.808,1.431
							C240.418,393.045,239.537,393.682,239.166,394.002z"/>
						<path style="fill:#113C7A;" d="M244.085,354.909c-0.161-1.529-1.991-2.026-3.675-1.505c-3.216-0.173-8.194-0.036-8.368,2.459
							c-0.258,3.695,1.474,6.331,3.145,8.125c1.235,1.325,2.056,3.86,2.402,5.096c0.293,9.758,0.939,23.517,1.343,24.834
							c0.65,2.121,3.851,2.026,3.995-0.04C243.574,386.897,244.085,354.909,244.085,354.909z"/>
						<path style="fill:#1AE5FF;" d="M244.094,356.061c-0.377,1.888-5.758,2.832-8.904,2.328c-3.146-0.504-6.535-2.047-6.423-5.695
							c0,0-0.478-14.576-0.478-17.444c0-2.867,1.804-4.99,1.804-4.99s1.762-2.014,7.3-0.881c0,0,4.512,0.983,6.588,4.318
							c0,0,1.434,3.664,0.956,11.311C244.458,352.655,244.094,356.061,244.094,356.061z"/>
						<path style="fill:#FF7C40;" d="M233.068,325.334c0,0,0.478,2.788,0,4.062c-0.08,0.637,2.708,2.788,5.177,2.23
							c1.434-0.319,1.354-1.035,1.354-1.035s-1.195-1.991-1.036-3.903C238.724,324.776,234.741,324.936,233.068,325.334z"/>
						<g>
							<path style="fill:#FF9D6F;" d="M242.388,319.719c0,3.629-2.942,6.571-6.571,6.571c-3.629,0-6.571-2.942-6.571-6.571
								c0-3.629,2.942-6.571,6.571-6.571C239.445,313.147,242.388,316.089,242.388,319.719z"/>
							<path style="fill:#FF9D6F;" d="M242.388,320.157c0,0,0.08,6.582-1.354,7.911c-1.434,1.328-3.635-1.244-7.154-2.068
								c-3.519-0.904,2.853-7.748,2.853-7.748L242.388,320.157z"/>
						</g>
						<g>
							<path style="fill:#FF9D6F;" d="M248.621,341.331c0,0,2.275,1.517,3.337,1.213c1.062-0.303,11.983-4.854,11.983-4.854
								s1.365-1.365,2.427-1.517c1.062-0.152,3.944,0.152,3.489,0.758c-0.455,0.607-2.275,1.82-3.337,2.124
								c-1.062,0.303-13.045,7.887-14.713,8.039c-1.669,0.152-6.067-3.034-6.067-3.034L248.621,341.331z"/>
						</g>
						<path style="fill:#113C7A;" d="M242.023,313.649c0,0,2.275,2.806,0.607,4.475c-1.669,1.669-6.143,0.303-6.143,0.303
							s1.289,1.896,1.289,2.958c0,1.062,0.531,2.882,0.531,2.882l-0.91,0.152c0,0,0-2.503-0.986-2.503s-0.834,2.503-0.076,3.185
							c0.758,0.683,0.986,0.834,0.986,0.834l-1.365,1.668c0,0-1.668,0.228-2.958-0.455c0,0-2.351-2.048-3.489-4.171
							c-1.138-2.124-1.517-5.081-0.076-6.674c0,0,0.303-1.972,1.593-2.806c1.289-0.834,5.461-1.972,8.039-0.303
							C241.264,314.56,241.643,314.18,242.023,313.649z"/>
						<path style="fill:#1AE5FF;" d="M242.559,333.694c0,0,1.237-0.619,3.403,2.165c2.165,2.784,3.918,6.084,5.774,5.878
							s11.755-4.228,11.755-4.228s1.959,0.825,1.547,2.578c-0.412,1.753-12.889,7.63-13.817,7.63c-0.928,0-6.805-3.196-7.734-4.125
							C242.559,342.665,239.569,335.653,242.559,333.694z"/>
						<path style="fill:#113C7A;" d="M238.267,324.233c0,0,0.425,4.331,3.364,2.707c0,0-0.155,1.315-1.237,1.547
							c-1.083,0.232-2.049-0.599-2.049-0.599s-0.909-1.856-0.986-3.557C237.281,322.628,238.267,324.233,238.267,324.233z"/>
					</g>
				</g>
			</g>
		</g>
		<g>
			
				<linearGradient id="SVGID_00000055706493811608622060000004885268840426939834_" gradientUnits="userSpaceOnUse" x1="381.5664" y1="313.4203" x2="517.5256" y2="313.4203" gradientTransform="matrix(1 0 0 1 -333.058 0)">
				<stop  offset="0" style="stop-color:#5155D4"/>
				<stop  offset="1" style="stop-color:#45F7FF"/>
			</linearGradient>
			
				<ellipse style="opacity:0.32;fill:url(#SVGID_00000055706493811608622060000004885268840426939834_);" cx="116.488" cy="313.42" rx="67.98" ry="40.394"/>
			<g>
				<g>
					<g style="enable-background:new    ;">
						<g>
							<polygon style="fill:#5C6BC0;" points="111.736,204.877 111.491,291.447 57.31,322.934 57.556,236.363 							"/>
						</g>
						<g>
							<polygon style="fill:#7986CB;" points="57.556,236.363 57.31,322.934 52.467,320.137 52.713,233.567 							"/>
						</g>
						<g>
							<polygon style="fill:#5155D4;" points="171.114,239.159 170.868,325.729 111.491,291.447 111.736,204.877 							"/>
						</g>
						<g>
							<polygon style="fill:#7986CB;" points="175.387,236.676 175.141,323.246 170.868,325.729 171.114,239.159 							"/>
						</g>
						<g>
							<polygon style="fill:#00CFFF;" points="175.387,236.676 171.114,239.159 111.736,204.877 57.556,236.363 52.713,233.567 
								111.166,199.598 							"/>
						</g>
					</g>
				</g>
				
					<linearGradient id="SVGID_00000023978415918733690020000009911914393222037138_" gradientUnits="userSpaceOnUse" x1="73.9191" y1="251.6906" x2="137.7446" y2="315.5161">
					<stop  offset="0" style="stop-color:#FFFFFF"/>
					<stop  offset="1" style="stop-color:#8AE6FF"/>
				</linearGradient>
				<path style="fill:url(#SVGID_00000023978415918733690020000009911914393222037138_);" d="M111.736,204.877L68.12,239.231v91.291
					l43.37-39.075C111.491,291.447,111.433,205.18,111.736,204.877z"/>
				
					<linearGradient id="SVGID_00000120555944726162857770000013340715728994607244_" gradientUnits="userSpaceOnUse" x1="120.5477" y1="257.0636" x2="146.2232" y2="271.0017">
					<stop  offset="0" style="stop-color:#FFFFFF"/>
					<stop  offset="1" style="stop-color:#8AE6FF"/>
				</linearGradient>
				<path style="fill:url(#SVGID_00000120555944726162857770000013340715728994607244_);" d="M111.157,204.877l52.411,31.338v91.291
					l-52.165-36.059C111.403,291.447,111.46,205.18,111.157,204.877z"/>
				
					<linearGradient id="SVGID_00000054975902189014850450000015506834938831131571_" gradientUnits="userSpaceOnUse" x1="109.3237" y1="225.9431" x2="153.3388" y2="290.4986">
					<stop  offset="0" style="stop-color:#FFFFFF"/>
					<stop  offset="1" style="stop-color:#8AE6FF"/>
				</linearGradient>
				<path style="fill:url(#SVGID_00000054975902189014850450000015506834938831131571_);" d="M111.157,204.877l48.254,32.072v91.291
					l-48.008-36.792C111.403,291.447,111.46,205.18,111.157,204.877z"/>
				
					<linearGradient id="SVGID_00000102516133798605922340000012310763621484146365_" gradientUnits="userSpaceOnUse" x1="137.2432" y1="270.9232" x2="183.5406" y2="305.8092">
					<stop  offset="0" style="stop-color:#FFFFFF"/>
					<stop  offset="1" style="stop-color:#8AE6FF"/>
				</linearGradient>
				<path style="fill:url(#SVGID_00000102516133798605922340000012310763621484146365_);" d="M111.157,204.877l43.616,34.354v91.291
					l-43.37-39.075C111.403,291.447,111.46,205.18,111.157,204.877z"/>
			</g>
			<g>
				<g>
					<g>
						<path style="fill:#1CE5FF;" d="M127.872,245.18l0,1.155c0,0.681-0.737,1.107-1.327,0.767l-5.459-3.145
							c-0.274-0.158-0.443-0.45-0.443-0.767l0-1.155c0-0.681,0.737-1.107,1.327-0.767l5.459,3.145
							C127.703,244.571,127.872,244.863,127.872,245.18z"/>
					</g>
					<g>
						<path style="fill:#1CE5FF;" d="M145.159,260.822l0,1.158c0,0.68-0.735,1.106-1.325,0.768l-22.745-13.039
							c-0.275-0.158-0.445-0.451-0.445-0.768l0-1.158c0-0.68,0.735-1.106,1.325-0.768l22.745,13.039
							C144.99,260.212,145.159,260.505,145.159,260.822z"/>
					</g>
					<g style="opacity:0.53;">
						<path style="fill:#1CE5FF;" d="M135.785,266.95l0,1.158c0,0.68-0.735,1.106-1.325,0.768l-13.367-7.663
							c-0.275-0.158-0.445-0.451-0.445-0.768l0-1.158c0-0.68,0.735-1.106,1.325-0.768l13.367,7.663
							C135.615,266.34,135.785,266.633,135.785,266.95z"/>
					</g>
					<g>
						<path style="opacity:0.3;fill:#1CE5FF;" d="M141.634,264.552l0,1.158c0,0.68-0.735,1.106-1.325,0.768l-19.218-11.017
							c-0.275-0.158-0.445-0.45-0.445-0.767l-0.001-1.158c0-0.68,0.735-1.106,1.325-0.768l19.218,11.017
							C141.464,263.942,141.634,264.235,141.634,264.552z"/>
					</g>
				</g>
			</g>
			<g>
				
					<linearGradient id="SVGID_00000008120571895225154030000006705233300382240942_" gradientUnits="userSpaceOnUse" x1="423.0791" y1="348.4467" x2="458.4998" y2="348.4467" gradientTransform="matrix(1 0 0 1 -333.058 0)">
					<stop  offset="0" style="stop-color:#5155D4"/>
					<stop  offset="1" style="stop-color:#45F7FF"/>
				</linearGradient>
				
					<ellipse style="opacity:0.32;fill:url(#SVGID_00000008120571895225154030000006705233300382240942_);" cx="107.731" cy="348.447" rx="17.71" ry="10.524"/>
				<g>
					<path style="fill:#FF9D6F;" d="M126.177,276.415c0,0,1.067-0.711,1.333-1.067c0.267-0.355,0.622-2.4,0.267-2.489
						c-0.356-0.089-0.622,1.333-0.622,1.333s-0.089-3.733-0.533-4.267c-0.444-0.533-1.867,2.133-1.956,2.578
						c-0.089,0.444-0.445,2.311-0.445,2.311S124.754,276.415,126.177,276.415z"/>
					
						<linearGradient id="SVGID_00000104700448347857996940000005193601618193362604_" gradientUnits="userSpaceOnUse" x1="108.2869" y1="292.564" x2="119.8435" y2="261.9834">
						<stop  offset="0" style="stop-color:#2689FD"/>
						<stop  offset="1" style="stop-color:#CFDAE4"/>
					</linearGradient>
					<path style="fill:url(#SVGID_00000104700448347857996940000005193601618193362604_);" d="M99.008,287.134
						c0,0-2.787,2.793-0.831,6.171s15.289-4.978,16.711-6.222c1.422-1.244,10.756-9.6,11.289-10.667
						c0.533-1.067-0.622-2.133-2.044-1.956c-1.422,0.178-7.111,6.222-11.556,9.067C112.576,283.527,101.973,285.94,99.008,287.134z"
						/>
					<path style="fill:#113C7A;" d="M100.641,346.244c0,0-0.229,1.683,0.077,2.371c0.306,0.612,1.53,1.071,2.371,0.459
						c0.841-0.612,2.295-2.142,2.295-2.142s2.448-1.3,2.677-1.989c0.229-0.688-0.612-1.3-1.3-1.147
						c-0.688,0.153-2.677,1.377-3.595,1.377S100.947,345.402,100.641,346.244z"/>
					<path style="fill:#FF4174;" d="M98.12,310.423c0,0,2.14,35.331,2.407,36.354c0.267,1.024,3.044,1.611,3.559-0.015
						c0.327-1.032,1.133-33.728,1.133-33.728L98.12,310.423z"/>
					<path style="fill:#113C7A;" d="M107.721,348.346c-0.12,0.103-0.186,0.254-0.188,0.412c-0.005,0.486,0.018,1.569,0.293,1.991
						c0.359,0.551,1.483,1.135,2.658,0.497c0.991-0.538,4.04-2.817,4.66-3.322c0.375-0.306,0.542-0.685,0.616-0.975
						c0.066-0.262-0.067-0.531-0.313-0.641c-0.432-0.193-1.172-0.433-1.832-0.211c-1.01,0.34-2.282,1.434-3.657,1.375
						C108.923,347.427,108.077,348.039,107.721,348.346z"/>
					<path style="fill:#FF4174;" d="M112.445,310.804c-0.155-1.468-1.912-1.945-3.53-1.445c-3.088-0.167-7.869-0.035-8.036,2.362
						c-0.248,3.548,1.415,6.08,3.02,7.802c1.186,1.273,1.975,3.707,2.307,4.894c0.281,9.37,0.902,22.584,1.29,23.849
						c0.624,2.037,3.698,1.945,3.837-0.038C111.954,341.522,112.445,310.804,112.445,310.804z"/>
					
						<linearGradient id="SVGID_00000047760785161063934290000004890845326476213651_" gradientUnits="userSpaceOnUse" x1="97.1497" y1="317.4779" x2="121.6837" y2="265.5653">
						<stop  offset="0" style="stop-color:#2689FD"/>
						<stop  offset="1" style="stop-color:#CFDAE4"/>
					</linearGradient>
					<path style="fill:url(#SVGID_00000047760785161063934290000004890845326476213651_);" d="M112.454,311.91
						c-0.363,1.813-5.53,2.719-8.551,2.236c-3.022-0.483-6.276-1.966-6.168-5.469c0,0,0.574-8.376,0.344-9.867
						c-0.229-1.492-0.803-4.131-0.803-6.884c0-2.754,1.732-4.792,1.732-4.792s1.692-1.934,7.01-0.846c0,0,4.333,0.944,6.327,4.147
						c0,0,1.377,3.519,0.918,10.862C112.803,308.639,112.454,311.91,112.454,311.91z"/>
					<path style="fill:#FF7C40;" d="M101.865,282.402c0,0,0.459,2.677,0,3.901c-0.077,0.612,2.601,2.677,4.972,2.142
						c1.377-0.306,1.3-0.995,1.3-0.995s-1.147-1.912-0.994-3.748C107.296,281.867,103.471,282.02,101.865,282.402z"/>
					<g>
						<path style="fill:#FF9D6F;" d="M110.814,277.01c0,3.485-2.825,6.311-6.31,6.311c-3.485,0-6.311-2.825-6.311-6.311
							s2.825-6.311,6.311-6.311C107.989,270.699,110.814,273.525,110.814,277.01z"/>
						<path style="fill:#FF9D6F;" d="M110.814,277.431c0,0,0.077,6.321-1.3,7.597c-1.377,1.276-3.49-1.194-6.87-1.986
							c-3.38-0.868,2.74-7.441,2.74-7.441L110.814,277.431z"/>
					</g>
					<path style="fill:#FF9D6F;" d="M124.821,286.771c0,0-0.6-2.467-0.4-2.667c0.2-0.2,1,0.867,1,0.867s0.4-2.533,0.733-2.8
						c0.333-0.267,1.667,1.067,1.867,1.8c0.2,0.733-0.8,3.667-1.2,3.733C126.421,287.771,125.021,287.971,124.821,286.771z"/>
					
						<linearGradient id="SVGID_00000065062334981174614170000000977010150114621117_" gradientUnits="userSpaceOnUse" x1="103.4455" y1="320.4531" x2="127.9794" y2="268.5408">
						<stop  offset="0" style="stop-color:#2689FD"/>
						<stop  offset="1" style="stop-color:#CFDAE4"/>
					</linearGradient>
					<path style="fill:url(#SVGID_00000065062334981174614170000000977010150114621117_);" d="M110.487,289.705
						c0,0-2.8,1.333-1.6,4.8c1.2,3.467,10.134,4.8,11.2,3.733c1.067-1.067,5.733-6.534,7.067-10.667c0,0-0.533-1.6-2.667-0.933
						c0,0-5.067,6.4-5.867,7.067C117.821,294.371,111.821,289.438,110.487,289.705z"/>
					<path style="fill:#113C7A;" d="M99.104,272.201c0,0,1.966-2.404,5.353-2.622c3.387-0.219,5.025,0.874,6.336,0.765
						c1.311-0.109,2.513,0.983,2.076,2.622c-0.437,1.639-1.42,3.277-3.605,3.277s-2.731-0.328-2.731-0.328s1.748,0.765,1.966,2.294
						c0.218,1.53,0.218,3.824,0.218,3.824h-0.546c0,0-0.437-2.513-1.311-2.513c-0.874,0-0.874,2.731-0.109,3.168
						c0.765,0.437,0.765,0.437,0.765,0.437s-1.467,2.718-2.263,2.834c-0.796,0.116-3.418-1.851-3.418-1.851s-4.37-2.076-4.807-5.462
						C96.591,275.26,99.104,272.201,99.104,272.201z"/>
				</g>
			</g>
		</g>
		<g>
			
				<linearGradient id="SVGID_00000013908248472122917060000004831764141160842429_" gradientUnits="userSpaceOnUse" x1="577.3171" y1="289.1139" x2="614.511" y2="289.1139" gradientTransform="matrix(1 0 0 1 -333.058 0)">
				<stop  offset="0" style="stop-color:#5155D4"/>
				<stop  offset="1" style="stop-color:#45F7FF"/>
			</linearGradient>
			
				<ellipse style="opacity:0.32;fill:url(#SVGID_00000013908248472122917060000004831764141160842429_);" cx="262.856" cy="289.114" rx="18.597" ry="11.05"/>
			<g>
				<path style="fill:#FF9D6F;" d="M251.245,239.316c0,0-9.087-4.047-10.308-4.734c-1.222-0.687-2.138-3.207-2.596-3.742
					c-0.458-0.535-2.52-1.756-2.443-1.222c0.076,0.535,1.145,1.527,1.145,1.527s-0.764,1.298-0.916,2.138
					c-0.153,0.84,0.993,2.52,1.604,2.978c0.611,0.458,2.062,0.611,2.062,0.611s7.407,4.963,8.629,5.04
					C249.642,241.989,251.398,241.302,251.245,239.316z"/>
				<path style="fill:#113C7A;" d="M269.739,288.813c0,0,0.236,1.731-0.079,2.439c-0.315,0.629-1.573,1.101-2.439,0.472
					c-0.865-0.629-2.36-2.203-2.36-2.203s-2.517-1.337-2.753-2.045c-0.236-0.708,0.629-1.337,1.337-1.18
					c0.708,0.157,2.753,1.416,3.697,1.416S269.424,287.948,269.739,288.813z"/>
				<path style="fill:#113C7A;" d="M272.332,251.975c0,0-2.201,36.334-2.476,37.387c-0.275,1.053-3.13,1.657-3.66-0.015
					c-0.336-1.061-1.165-34.686-1.165-34.686L272.332,251.975z"/>
				<path style="fill:#113C7A;" d="M262.458,290.975c0.123,0.106,0.192,0.261,0.193,0.424c0.005,0.5-0.018,1.613-0.301,2.047
					c-0.369,0.567-1.525,1.168-2.734,0.511c-1.019-0.553-4.155-2.898-4.792-3.417c-0.386-0.315-0.558-0.704-0.634-1.003
					c-0.068-0.269,0.069-0.546,0.322-0.659c0.444-0.198,1.205-0.445,1.884-0.216c1.039,0.349,2.346,1.474,3.761,1.414
					C261.222,290.03,262.091,290.66,262.458,290.975z"/>
				<path style="fill:#113C7A;" d="M257.599,252.367c0.159-1.51,1.966-2.001,3.63-1.486c3.176-0.171,8.092-0.036,8.265,2.429
					c0.255,3.649-1.455,6.253-3.106,8.024c-1.219,1.309-2.031,3.813-2.372,5.033c-0.289,9.637-0.928,23.226-1.326,24.526
					c-0.642,2.095-3.803,2.001-3.946-0.04C258.104,283.958,257.599,252.367,257.599,252.367z"/>
				
					<linearGradient id="SVGID_00000130615303790790085640000006784528982209997184_" gradientUnits="userSpaceOnUse" x1="266.8447" y1="276.6928" x2="263.4601" y2="206.0235">
					<stop  offset="0" style="stop-color:#1AE5FF"/>
					<stop  offset="0.2589" style="stop-color:#64E8F9"/>
					<stop  offset="0.7043" style="stop-color:#EAEEEE"/>
				</linearGradient>
				<path style="fill:url(#SVGID_00000130615303790790085640000006784528982209997184_);" d="M257.59,253.505
					c0.373,1.865,5.687,2.797,8.794,2.299c3.107-0.497,6.454-2.021,6.343-5.624c0,0,0.472-14.396,0.472-17.228
					c0-2.832-1.781-4.928-1.781-4.928s-1.74-1.989-7.209-0.87c0,0-4.456,0.971-6.506,4.264c0,0-1.416,3.619-0.944,11.17
					C257.231,250.141,257.59,253.505,257.59,253.505z"/>
				<path style="fill:#FF7C40;" d="M268.48,223.158c0,0-0.472,2.753,0,4.012c0.079,0.629-2.675,2.753-5.113,2.203
					c-1.416-0.315-1.337-1.023-1.337-1.023s1.18-1.967,1.023-3.855C262.895,222.608,266.828,222.765,268.48,223.158z"/>
				<g>
					<path style="fill:#FF9D6F;" d="M259.276,217.613c0,3.584,2.906,6.49,6.49,6.49c3.584,0,6.49-2.906,6.49-6.49
						c0-3.584-2.906-6.49-6.49-6.49C262.182,211.123,259.276,214.028,259.276,217.613z"/>
					<path style="fill:#FF9D6F;" d="M259.276,218.045c0,0-0.079,6.501,1.337,7.813c1.416,1.312,3.59-1.229,7.065-2.043
						c3.476-0.893-2.818-7.653-2.818-7.653L259.276,218.045z"/>
				</g>
				<g>
					
						<linearGradient id="SVGID_00000146473629550271825680000012060709921749706911_" gradientUnits="userSpaceOnUse" x1="256.1895" y1="275.4217" x2="252.8049" y2="204.7525">
						<stop  offset="0" style="stop-color:#1AE5FF"/>
						<stop  offset="0.2589" style="stop-color:#64E8F9"/>
						<stop  offset="0.7043" style="stop-color:#EAEEEE"/>
					</linearGradient>
					<path style="fill:url(#SVGID_00000146473629550271825680000012060709921749706911_);" d="M259.8,229.903
						c0,0-1.421-0.406-3.046,1.929c-1.625,2.335-3.96,5.381-5.077,5.889c-1.117,0.508-2.64-0.508-3.249-0.508
						c-0.609,0-2.234,2.843-1.624,4.265c0.609,1.422,4.569,2.132,5.584,2.132c1.015,0,7.615-3.96,8.529-6.194
						S263.253,230.005,259.8,229.903z"/>
					
						<linearGradient id="SVGID_00000152948333069875990290000007223879452378718346_" gradientUnits="userSpaceOnUse" x1="248.3884" y1="249.9101" x2="246.6284" y2="236.5073">
						<stop  offset="0" style="stop-color:#1AE5FF"/>
						<stop  offset="0.2589" style="stop-color:#64E8F9"/>
						<stop  offset="0.7043" style="stop-color:#EAEEEE"/>
					</linearGradient>
					<path style="fill:url(#SVGID_00000152948333069875990290000007223879452378718346_);" d="M249.342,237.518
						c0,0-0.406-1.117-1.828-1.218c-1.421-0.102-3.046,2.64-2.945,4.163c0.102,1.523,2.335,2.335,2.843,1.929
						C247.921,241.986,246.905,240.971,249.342,237.518z"/>
				</g>
				<path style="fill:#113C7A;" d="M261.882,212.134c0,0-2.335,0.508-3.046,4.062c0.305,1.523,2.437,0.305,3.249,2.335
					c0.812,2.031,1.32,2.64,1.32,2.64l0.508-0.203c0,0,0-1.625,0.711-1.625c0.711,0,0.914,1.929,0.508,2.742
					c-0.406,0.812-1.32,1.218-1.32,1.218s1.015,1.726,1.523,1.929c0.508,0.203,2.335-0.203,3.046-0.508
					c0.711-0.305,2.031-1.726,3.046-3.351c1.015-1.625,1.929-4.468,1.32-6.397c-0.609-1.929-2.031-2.437-2.031-2.437
					s-0.812-1.117-2.234-1.625C267.06,210.408,264.42,210.205,261.882,212.134z"/>
				<path style="fill:#CFDAE4;" d="M260.765,228.516l1.692-0.948c0,0,4.332-0.406,5.889-1.421l0.812,1.151
					c0,0-1.083,2.098-3.858,2.369c-2.775,0.271-4.061-0.812-4.061-0.812L260.765,228.516z"/>
			</g>
		</g>
		<g>
			
				<linearGradient id="SVGID_00000096757177601314278040000011356486257894469262_" gradientUnits="userSpaceOnUse" x1="216.6092" y1="200.5574" x2="209.9689" y2="173.6059">
				<stop  offset="0" style="stop-color:#5155D4"/>
				<stop  offset="1" style="stop-color:#45F7FF"/>
			</linearGradient>
			
				<ellipse style="opacity:0.32;fill:url(#SVGID_00000096757177601314278040000011356486257894469262_);" cx="211.13" cy="178.317" rx="32.161" ry="16.953"/>
			<g>
				
					<linearGradient id="SVGID_00000120520242343077837160000005972792097591143816_" gradientUnits="userSpaceOnUse" x1="219.4644" y1="196.2456" x2="211.3426" y2="163.2807">
					<stop  offset="0" style="stop-color:#6F898E"/>
					<stop  offset="1" style="stop-color:#423E4D"/>
				</linearGradient>
				<path style="fill:url(#SVGID_00000120520242343077837160000005972792097591143816_);" d="M182.436,153.62l-0.057,20.132
					c-0.012,4.355,2.861,8.716,8.614,12.037c0.344,0.199,0.695,0.391,1.052,0.577c0.118,0.062,0.239,0.119,0.358,0.18
					c0.242,0.122,0.483,0.245,0.73,0.362c0.145,0.069,0.294,0.134,0.441,0.201c0.226,0.103,0.451,0.206,0.681,0.305
					c0.16,0.068,0.322,0.134,0.483,0.2c0.156,0.064,0.309,0.131,0.466,0.193c0.049,0.019,0.1,0.035,0.149,0.054
					c0.507,0.197,1.02,0.387,1.543,0.564c0.081,0.028,0.163,0.052,0.244,0.079c0.454,0.151,0.914,0.293,1.379,0.428
					c0.077,0.023,0.152,0.049,0.23,0.072c0.089,0.025,0.18,0.047,0.269,0.071c0.293,0.081,0.588,0.159,0.885,0.234
					c0.18,0.046,0.359,0.092,0.541,0.136c0.325,0.078,0.654,0.151,0.983,0.222c0.123,0.027,0.244,0.057,0.367,0.083
					c0.033,0.007,0.067,0.012,0.1,0.019c0.301,0.062,0.605,0.117,0.908,0.173c0.162,0.03,0.322,0.062,0.485,0.091
					c0.397,0.068,0.797,0.13,1.198,0.189c0.068,0.01,0.135,0.022,0.203,0.032c0.004,0.001,0.007,0.001,0.01,0.001
					c0.463,0.066,0.928,0.124,1.395,0.177c0.112,0.013,0.225,0.021,0.338,0.033c0.355,0.037,0.71,0.074,1.067,0.104
					c0.01,0.001,0.019,0.002,0.028,0.003c0.165,0.014,0.331,0.022,0.496,0.034c0.297,0.021,0.593,0.044,0.891,0.061
					c0.195,0.011,0.391,0.016,0.586,0.024c0.278,0.012,0.555,0.025,0.833,0.033c0.023,0.001,0.046,0.002,0.07,0.003
					c0.158,0.004,0.315,0.002,0.473,0.005c0.303,0.005,0.606,0.01,0.909,0.009c0.199,0,0.397-0.005,0.596-0.008
					c0.285-0.004,0.57-0.008,0.855-0.017c0.052-0.002,0.105-0.001,0.157-0.003c0.132-0.004,0.262-0.014,0.394-0.02
					c0.328-0.014,0.657-0.029,0.984-0.05c0.197-0.012,0.393-0.026,0.589-0.041c0.314-0.023,0.629-0.049,0.942-0.078
					c0.109-0.01,0.22-0.016,0.328-0.027c0.076-0.008,0.151-0.019,0.227-0.027c0.488-0.051,0.974-0.108,1.458-0.174
					c0.077-0.01,0.155-0.018,0.232-0.029c0.554-0.078,1.105-0.167,1.652-0.264c0.051-0.009,0.103-0.015,0.154-0.025
					c0.144-0.026,0.286-0.057,0.43-0.085c0.256-0.049,0.513-0.098,0.767-0.151c0.206-0.043,0.41-0.089,0.615-0.134
					c0.25-0.056,0.499-0.113,0.747-0.172c0.205-0.05,0.408-0.102,0.612-0.154c0.244-0.063,0.486-0.127,0.727-0.194
					c0.203-0.057,0.404-0.115,0.605-0.174c0.238-0.07,0.475-0.142,0.71-0.216c0.103-0.033,0.209-0.062,0.311-0.095
					c0.073-0.024,0.144-0.052,0.217-0.076c0.428-0.142,0.851-0.29,1.269-0.445c0.086-0.032,0.175-0.062,0.26-0.095
					c0.494-0.188,0.978-0.386,1.455-0.593c0.125-0.054,0.246-0.111,0.37-0.166c0.366-0.164,0.727-0.334,1.081-0.51
					c0.133-0.066,0.266-0.131,0.397-0.198c0.456-0.234,0.906-0.475,1.342-0.728c0.12-0.07,0.239-0.14,0.356-0.211
					c0.11-0.066,0.211-0.135,0.319-0.202c0.179-0.111,0.358-0.223,0.531-0.336c0.158-0.104,0.312-0.209,0.465-0.314
					c0.167-0.115,0.332-0.23,0.493-0.347c0.148-0.107,0.291-0.216,0.434-0.325c0.155-0.118,0.308-0.237,0.457-0.358
					c0.137-0.111,0.27-0.223,0.403-0.335c0.143-0.122,0.284-0.244,0.42-0.367c0.056-0.051,0.118-0.1,0.173-0.151
					c0.051-0.048,0.095-0.097,0.146-0.145c0.23-0.217,0.45-0.436,0.661-0.658c0.071-0.074,0.145-0.147,0.213-0.222
					c0.268-0.291,0.521-0.585,0.757-0.883c0.01-0.013,0.022-0.025,0.032-0.038c0.054-0.069,0.1-0.139,0.152-0.208
					c0.142-0.187,0.282-0.375,0.412-0.564c0.071-0.104,0.136-0.208,0.204-0.313c0.111-0.172,0.219-0.344,0.32-0.517
					c0.027-0.047,0.06-0.094,0.087-0.141c0.04-0.07,0.071-0.141,0.109-0.212c0.079-0.146,0.155-0.292,0.227-0.439
					c0.06-0.122,0.117-0.245,0.172-0.368c0.066-0.147,0.128-0.295,0.187-0.443c0.026-0.066,0.059-0.131,0.083-0.198
					c0.022-0.059,0.038-0.119,0.059-0.179c0.05-0.141,0.096-0.282,0.14-0.423c0.04-0.128,0.078-0.257,0.113-0.385
					c0.038-0.142,0.072-0.284,0.104-0.426c0.017-0.077,0.041-0.153,0.056-0.23c0.01-0.051,0.015-0.104,0.024-0.155
					c0.027-0.146,0.049-0.292,0.069-0.438c0.018-0.128,0.036-0.255,0.048-0.383c0.015-0.147,0.024-0.294,0.031-0.441
					c0.005-0.086,0.016-0.172,0.019-0.258c0.002-0.085,0.004-0.171,0.004-0.256l0.058-20.302H182.436z"/>
				<g>
					<g style="enable-background:new    ;">
						<g>
							
								<linearGradient id="SVGID_00000098216737806695903490000001450611430917867431_" gradientUnits="userSpaceOnUse" x1="235.5665" y1="156.1728" x2="234.6109" y2="195.8261">
								<stop  offset="0" style="stop-color:#546E7A"/>
								<stop  offset="1" style="stop-color:#423E4D"/>
							</linearGradient>
							<polygon style="fill:url(#SVGID_00000098216737806695903490000001450611430917867431_);" points="257.751,153.316 
								257.747,154.874 212.853,180.963 212.858,179.405 							"/>
						</g>
						<g>
							
								<linearGradient id="SVGID_00000038391210747186087590000008351387436196294057_" gradientUnits="userSpaceOnUse" x1="167.6665" y1="167.1397" x2="212.8578" y2="167.1397">
								<stop  offset="0" style="stop-color:#546E7A"/>
								<stop  offset="1" style="stop-color:#423E4D"/>
							</linearGradient>
							<polygon style="fill:url(#SVGID_00000038391210747186087590000008351387436196294057_);" points="212.858,179.405 
								212.853,180.963 167.666,154.874 167.671,153.316 							"/>
						</g>
						<g>
							
								<linearGradient id="SVGID_00000133510454143229320600000012113596220136685199_" gradientUnits="userSpaceOnUse" x1="209.9133" y1="105.7562" x2="215.0094" y2="192.3888">
								<stop  offset="0" style="stop-color:#546E7A"/>
								<stop  offset="1" style="stop-color:#423E4D"/>
							</linearGradient>
							<polygon style="fill:url(#SVGID_00000133510454143229320600000012113596220136685199_);" points="257.751,153.316 
								212.858,179.405 167.671,153.316 212.564,127.228 							"/>
						</g>
					</g>
				</g>
			</g>
		</g>
	</g>
</g>
<g id="DESIGNED_BY_FREEPIK">
	<g>
		<g id="XMLID_319_">
			<g id="XMLID_338_">
				<path id="XMLID_346_" style="fill:#392836;" d="M262.109,462.225c-0.49,0.502-0.91,1.054-1.255,1.646l-0.527-0.273
					c-0.076-0.337-0.396-0.569-0.746-0.528c-0.375,0.044-0.643,0.384-0.599,0.758c0.044,0.375,0.384,0.643,0.758,0.599
					c0.074-0.009,0.144-0.029,0.208-0.059l0.511,0.265c-0.284,0.627-0.49,1.289-0.611,1.975l0.845,0.149
					c0.26-1.479,0.962-2.839,2.029-3.932L262.109,462.225z"/>
				<path id="XMLID_345_" style="fill:#392836;" d="M268.323,459.619c-0.194,0-0.386,0.007-0.577,0.019l-0.083-0.709
					c0.212-0.169,0.335-0.441,0.301-0.73c-0.052-0.445-0.456-0.764-0.901-0.711c-0.445,0.052-0.763,0.456-0.711,0.901
					c0.034,0.288,0.214,0.522,0.458,0.638l0.083,0.707c-0.808,0.132-1.589,0.376-2.332,0.731l0.37,0.774
					c1.058-0.506,2.199-0.762,3.392-0.762c0.562,0,1.124,0.06,1.67,0.178l0.182-0.839
					C269.569,459.685,268.946,459.619,268.323,459.619z"/>
				<path id="XMLID_344_" style="fill:#392836;" d="M275.799,462.503c0.375-0.046,0.641-0.387,0.595-0.761
					c-0.046-0.375-0.387-0.641-0.761-0.595c-0.35,0.043-0.606,0.344-0.6,0.689l-0.471,0.411c-0.473-0.487-1.007-0.92-1.594-1.29
					l-0.457,0.726c1.284,0.809,2.288,1.955,2.903,3.313l0.782-0.354c-0.284-0.627-0.643-1.214-1.067-1.75l0.455-0.397
					C275.653,462.509,275.725,462.512,275.799,462.503z"/>
				<path id="XMLID_343_" style="fill:#392836;" d="M267.703,471.179c-0.437,0.026-0.878,0.039-1.31,0.039
					c-0.997,0-1.962-0.069-2.806-0.203c-0.442-0.07-0.958-0.176-1.439-0.331c1.185,2.107,3.476,3.539,6.102,3.539
					c3.233,0,5.959-2.17,6.737-5.1c-0.772,0.509-1.705,0.934-2.784,1.271C270.867,470.811,269.31,471.082,267.703,471.179z"/>
				<path id="XMLID_339_" style="fill:#392836;" d="M268.323,461.335c-3.796,0-6.884,3.019-6.884,6.73
					c0,0.482,0.052,0.962,0.155,1.428c0.763,0.547,3.064,1.008,6.056,0.828c3.261-0.196,5.998-1.084,7.555-2.444
					c-0.006-0.221-0.023-0.442-0.051-0.659C274.723,463.865,271.786,461.335,268.323,461.335z M265.878,468.713
					c-1.155,0-2.095-0.94-2.095-2.095c0-1.155,0.94-2.095,2.095-2.095s2.095,0.94,2.095,2.095
					C267.972,467.773,267.033,468.713,265.878,468.713z M271.242,467.684c-0.849,0-1.54-0.691-1.54-1.54
					c0-0.85,0.691-1.541,1.54-1.541c0.849,0,1.541,0.691,1.541,1.541C272.783,466.993,272.092,467.684,271.242,467.684z"/>
			</g>
			<path id="XMLID_336_" style="fill:#392836;" d="M286.445,463.45c-0.334-0.131-0.912-0.35-1.565-0.269
				c-0.624,0.078-0.956,0.386-0.956,1.14v0.981h2.523v1.944h-2.523v6.177h-2.188v-6.177h-1.517v-1.944h1.517v-1.006
				c0-1.902,1.014-3.151,2.908-3.151c0.728,0,1.31,0.138,1.8,0.349L286.445,463.45z"/>
			<path id="XMLID_334_" style="fill:#392836;" d="M291.77,467.223c-0.2-0.034-0.405-0.052-0.596-0.052
				c-1.014,0-1.71,0.62-1.71,1.827v4.425h-2.188v-8.121h2.121v0.888c0.511-0.763,1.291-1.106,2.288-1.106
				c0.469,0,0.96,0.144,1.239,0.381L291.77,467.223z"/>
			<path id="XMLID_331_" style="fill:#392836;" d="M300.453,469.35c0,0.251-0.017,0.553-0.042,0.738h-5.758
				c0.235,1.173,1.056,1.685,2.087,1.685c0.704,0,1.467-0.285,2.053-0.779l1.282,1.408c-0.922,0.846-2.095,1.232-3.461,1.232
				c-2.489,0-4.216-1.693-4.216-4.249c0-2.556,1.676-4.3,4.107-4.3C298.844,465.084,300.444,466.819,300.453,469.35z
				 M294.661,468.595h3.595c-0.201-1.039-0.83-1.626-1.768-1.626C295.457,466.97,294.854,467.59,294.661,468.595z"/>
			<path id="XMLID_328_" style="fill:#392836;" d="M309.119,469.35c0,0.251-0.017,0.553-0.042,0.738h-5.758
				c0.235,1.173,1.056,1.685,2.087,1.685c0.704,0,1.467-0.285,2.053-0.779l1.282,1.408c-0.922,0.846-2.095,1.232-3.461,1.232
				c-2.489,0-4.216-1.693-4.216-4.249c0-2.556,1.676-4.3,4.107-4.3C307.51,465.084,309.111,466.819,309.119,469.35z
				 M303.328,468.595h3.596c-0.201-1.039-0.83-1.626-1.768-1.626C304.124,466.97,303.521,467.59,303.328,468.595z"/>
			<path id="XMLID_325_" style="fill:#392836;" d="M318.57,469.358c0,2.439-1.693,4.275-3.931,4.275
				c-1.09,0-1.861-0.427-2.389-1.056v4.199h-2.179v-11.474h2.137v0.897c0.528-0.662,1.307-1.115,2.422-1.115
				C316.877,465.084,318.57,466.919,318.57,469.358z M312.141,469.358c0,1.282,0.847,2.238,2.087,2.238
				c1.291,0,2.095-0.997,2.095-2.238c0-1.24-0.805-2.238-2.095-2.238C312.988,467.12,312.141,468.076,312.141,469.358z"/>
			<path id="XMLID_322_" style="fill:#392836;" d="M322.084,462.645c0,0.788-0.612,1.391-1.4,1.391
				c-0.788,0-1.391-0.603-1.391-1.391c0-0.788,0.603-1.408,1.391-1.408C321.472,461.237,322.084,461.857,322.084,462.645z
				 M321.791,473.423h-2.188v-8.121h2.188V473.423z"/>
			<path id="XMLID_320_" style="fill:#392836;" d="M325.441,468.193l3.059-2.892h2.682l-3.939,3.822l3.964,4.3h-2.69l-3.076-3.285
				v3.285h-2.188v-12.069h2.188V468.193z"/>
		</g>
		<g>
			<path style="fill:#392836;" d="M176.395,473.349v-1.194c-0.597,0.813-1.576,1.393-2.704,1.393c-2.09,0-3.566-1.592-3.566-4.196
				c0-2.555,1.46-4.213,3.566-4.213c1.078,0,2.057,0.531,2.704,1.41v-4.263h1.244v11.064H176.395z M176.395,471.177v-3.633
				c-0.448-0.697-1.41-1.294-2.405-1.294c-1.609,0-2.571,1.327-2.571,3.102c0,1.775,0.962,3.085,2.571,3.085
				C174.986,472.437,175.948,471.874,176.395,471.177z"/>
			<path style="fill:#392836;" d="M179.248,469.336c0-2.322,1.659-4.197,3.948-4.197c2.422,0,3.848,1.891,3.848,4.296v0.315h-6.486
				c0.1,1.509,1.161,2.77,2.886,2.77c0.912,0,1.841-0.365,2.471-1.012l0.597,0.813c-0.796,0.796-1.874,1.227-3.185,1.227
				C180.957,473.549,179.248,471.84,179.248,469.336z M183.18,466.168c-1.709,0-2.555,1.443-2.621,2.67h5.258
				C185.8,467.643,185.004,466.168,183.18,466.168z"/>
			<path style="fill:#392836;" d="M187.94,472.288l0.647-0.896c0.531,0.614,1.543,1.145,2.637,1.145
				c1.228,0,1.891-0.581,1.891-1.377c0-1.94-4.96-0.746-4.96-3.716c0-1.244,1.078-2.306,2.985-2.306c1.36,0,2.323,0.514,2.969,1.161
				l-0.581,0.862c-0.481-0.581-1.36-1.012-2.389-1.012c-1.095,0-1.775,0.548-1.775,1.261c0,1.758,4.96,0.597,4.96,3.716
				c0,1.344-1.078,2.422-3.151,2.422C189.864,473.549,188.752,473.151,187.94,472.288z"/>
			<path style="fill:#392836;" d="M195.719,463.364c0-0.464,0.382-0.846,0.829-0.846c0.465,0,0.846,0.381,0.846,0.846
				c0,0.465-0.381,0.829-0.846,0.829C196.101,464.193,195.719,463.829,195.719,463.364z M195.935,473.349v-8.011h1.244v8.011
				H195.935z"/>
			<path style="fill:#392836;" d="M199.235,475.406l0.63-0.929c0.664,0.796,1.46,1.095,2.604,1.095c1.327,0,2.571-0.647,2.571-2.405
				v-1.145c-0.581,0.813-1.559,1.427-2.687,1.427c-2.09,0-3.566-1.559-3.566-4.147c0-2.571,1.46-4.163,3.566-4.163
				c1.078,0,2.041,0.531,2.687,1.41v-1.211h1.244v7.779c0,2.654-1.858,3.483-3.815,3.483
				C201.11,476.601,200.181,476.335,199.235,475.406z M205.041,471.044v-3.5c-0.432-0.697-1.393-1.294-2.389-1.294
				c-1.609,0-2.571,1.277-2.571,3.052c0,1.759,0.962,3.052,2.571,3.052C203.647,472.354,204.609,471.741,205.041,471.044z"/>
			<path style="fill:#392836;" d="M213.766,473.349v-5.242c0-1.41-0.713-1.858-1.791-1.858c-0.979,0-1.908,0.597-2.372,1.244v5.855
				h-1.244v-8.011h1.244v1.161c0.564-0.663,1.658-1.36,2.853-1.36c1.675,0,2.555,0.846,2.555,2.588v5.623H213.766z"/>
			<path style="fill:#392836;" d="M216.618,469.336c0-2.322,1.659-4.197,3.948-4.197c2.422,0,3.848,1.891,3.848,4.296v0.315h-6.486
				c0.099,1.509,1.161,2.77,2.886,2.77c0.912,0,1.841-0.365,2.472-1.012l0.597,0.813c-0.796,0.796-1.874,1.227-3.185,1.227
				C218.327,473.549,216.618,471.84,216.618,469.336z M220.55,466.168c-1.708,0-2.555,1.443-2.621,2.67h5.258
				C223.17,467.643,222.374,466.168,220.55,466.168z"/>
			<path style="fill:#392836;" d="M231.812,473.349v-1.194c-0.597,0.813-1.576,1.393-2.704,1.393c-2.09,0-3.566-1.592-3.566-4.196
				c0-2.555,1.46-4.213,3.566-4.213c1.078,0,2.057,0.531,2.704,1.41v-4.263h1.244v11.064H231.812z M231.812,471.177v-3.633
				c-0.448-0.697-1.41-1.294-2.405-1.294c-1.609,0-2.571,1.327-2.571,3.102c0,1.775,0.962,3.085,2.571,3.085
				C230.402,472.437,231.364,471.874,231.812,471.177z"/>
			<path style="fill:#392836;" d="M238.994,473.349v-11.064h1.244v4.263c0.647-0.879,1.609-1.41,2.704-1.41
				c2.09,0,3.566,1.659,3.566,4.213c0,2.604-1.476,4.196-3.566,4.196c-1.128,0-2.107-0.581-2.704-1.393v1.194H238.994z
				 M242.626,472.437c1.626,0,2.588-1.31,2.588-3.085c0-1.775-0.962-3.102-2.588-3.102c-0.979,0-1.957,0.597-2.389,1.294v3.633
				C240.669,471.874,241.648,472.437,242.626,472.437z"/>
			<path style="fill:#392836;" d="M247.868,475.357c0.182,0.083,0.481,0.133,0.68,0.133c0.547,0,0.912-0.182,1.194-0.846
				l0.531-1.211l-3.351-8.095h1.344l2.671,6.568l2.654-6.568h1.36l-4.014,9.637c-0.481,1.161-1.294,1.609-2.356,1.625
				c-0.265,0-0.68-0.05-0.912-0.116L247.868,475.357z"/>
		</g>
	</g>
</g>
</svg>
